<svg width="400" height="282" viewBox="0 0 400 282" fill="none" xmlns="http://www.w3.org/2000/svg">
<path d="M211.619 281.849C195.806 281.849 180.458 276.733 167.9 266.966C158.598 270.686 147.901 273.012 137.204 273.012C100.461 273.012 68.8343 248.362 59.5324 213.014C26.0454 210.224 0 182.318 0 148.366C0 113.484 27.9058 84.6477 62.7881 83.2524C63.7183 53.9513 87.9033 30.2313 117.204 30.2313C128.832 30.2313 139.994 33.9521 149.296 40.9285C166.04 15.3482 193.945 0 224.642 0C266.966 0 303.708 29.7662 312.08 71.6249C335.8 71.6249 358.125 80.9269 374.403 97.6704C391.147 114.879 400.448 137.204 399.983 161.854C399.983 211.154 359.985 251.152 310.685 251.152C298.592 251.152 286.5 248.362 274.872 243.246C262.78 266.966 238.13 281.849 211.619 281.849ZM168.365 261.85C168.83 261.85 169.295 261.85 169.76 262.315C181.853 272.082 196.271 277.198 211.619 277.198C237.199 277.198 260.919 262.315 271.617 239.06C272.082 238.13 273.477 237.199 274.872 238.13C286.5 243.711 298.592 246.501 311.15 246.501C357.66 246.501 395.798 208.363 395.798 161.854C395.798 138.599 387.426 117.204 371.147 100.926C355.334 85.1127 333.94 76.2759 311.15 76.2759H309.755C308.824 76.2759 307.894 75.3457 307.429 74.4155C299.988 33.9521 265.105 4.65097 224.177 4.65097C194.411 4.65097 166.97 19.9992 151.622 45.5795C151.157 46.0446 150.691 46.5097 150.226 46.5097C149.761 46.5097 148.831 46.5097 148.366 46.0446C139.529 38.6031 128.832 34.8823 117.204 34.8823C89.7637 34.8823 67.4391 57.2069 67.4391 84.6476V85.5778C67.4391 86.9731 66.5089 87.9033 65.1136 87.9033C31.6266 87.9033 4.65097 114.879 4.65097 148.366C4.65097 180.458 29.7662 206.503 61.8579 208.363C62.7881 208.363 63.7183 209.294 64.1834 210.224C72.5551 244.641 102.786 268.361 138.134 268.361C148.831 268.361 159.063 266.501 168.365 262.315C167.435 261.85 167.9 261.85 168.365 261.85Z" fill="white"/>
</svg>
