<svg width="156" height="113" viewBox="0 0 156 113" fill="none" xmlns="http://www.w3.org/2000/svg">
<path d="M99.55 0.390137C122.499 0.390137 141.18 19.0715 141.18 42.0201C141.18 43.903 140.918 45.6306 140.671 47.3936C149.647 53.9633 155.66 64.4091 155.66 76.4101C155.66 96.4023 139.452 112.61 119.46 112.61H32.58C14.6295 112.61 0 97.9808 0 80.0301C0 65.7148 9.34387 53.6112 22.2291 49.2601C22.0531 48.0452 21.72 46.9163 21.72 45.6401C21.72 30.6885 33.9184 18.4901 48.87 18.4901C54.0337 18.4901 58.6197 20.2749 62.7278 22.7889C69.6834 9.48437 83.5358 0.390137 99.55 0.390137ZM99.55 7.63014C85.0383 7.63014 72.661 16.5252 67.5922 29.1804C67.3792 29.7149 67.042 30.1908 66.6084 30.5689C66.1748 30.947 65.6573 31.2163 65.0989 31.3546C64.5405 31.4928 63.9571 31.4959 63.3973 31.3637C62.8374 31.2316 62.317 30.9679 61.8794 30.5945C58.3729 27.5573 53.8586 25.7301 48.87 25.7301C37.8312 25.7301 28.96 34.6013 28.96 45.6401C28.96 47.4145 29.2363 49.1481 29.6953 50.8439C29.8213 51.3159 29.8505 51.8084 29.781 52.292C29.7116 52.7755 29.5451 53.2401 29.2914 53.6575C29.0378 54.075 28.7022 54.4368 28.3051 54.7212C27.9079 55.0056 27.4572 55.2066 26.9803 55.3122C15.6929 57.8654 7.24 67.9321 7.24 80.0301C7.24 94.068 18.5423 105.37 32.58 105.37H119.46C135.566 105.37 148.42 92.5166 148.42 76.4101C148.42 66.0609 143.05 57.1076 134.958 51.9751C134.341 51.5897 133.855 51.0273 133.562 50.3614C133.27 49.6956 133.185 48.957 133.318 48.242C133.702 46.1547 133.94 44.117 133.94 42.0201C133.94 22.9843 118.586 7.63014 99.55 7.63014Z" fill="url(#paint0_linear)"/>
<defs>
<linearGradient id="paint0_linear" x1="77.83" y1="0.390137" x2="77.83" y2="112.61" gradientUnits="userSpaceOnUse">
<stop stop-color="#199DFF"/>
<stop offset="1" stop-color="#017EDB"/>
</linearGradient>
</defs>
</svg>
