<svg width="445" height="266" viewBox="0 0 445 266" fill="none" xmlns="http://www.w3.org/2000/svg">
<path d="M187.289 15.324C187.289 16.596 187.077 17.764 186.653 18.828C186.229 19.892 185.633 20.808 184.865 21.576C184.097 22.344 183.173 22.94 182.093 23.364C181.013 23.788 179.813 24 178.493 24H171.881V6.648H178.493C179.813 6.648 181.013 6.864 182.093 7.296C183.173 7.72 184.097 8.316 184.865 9.084C185.633 9.844 186.229 10.756 186.653 11.82C187.077 12.884 187.289 14.052 187.289 15.324ZM183.977 15.324C183.977 14.372 183.849 13.52 183.593 12.768C183.345 12.008 182.981 11.368 182.501 10.848C182.029 10.32 181.453 9.916 180.773 9.636C180.101 9.356 179.341 9.216 178.493 9.216H175.121V21.432H178.493C179.341 21.432 180.101 21.292 180.773 21.012C181.453 20.732 182.029 20.332 182.501 19.812C182.981 19.284 183.345 18.644 183.593 17.892C183.849 17.132 183.977 16.276 183.977 15.324ZM195.87 18.744C195.014 18.784 194.294 18.86 193.71 18.972C193.126 19.076 192.658 19.212 192.306 19.38C191.954 19.548 191.702 19.744 191.55 19.968C191.398 20.192 191.322 20.436 191.322 20.7C191.322 21.22 191.474 21.592 191.778 21.816C192.09 22.04 192.494 22.152 192.99 22.152C193.598 22.152 194.122 22.044 194.562 21.828C195.01 21.604 195.446 21.268 195.87 20.82V18.744ZM189.078 13.404C190.494 12.108 192.198 11.46 194.19 11.46C194.91 11.46 195.554 11.58 196.122 11.82C196.69 12.052 197.17 12.38 197.562 12.804C197.954 13.22 198.25 13.72 198.45 14.304C198.658 14.888 198.762 15.528 198.762 16.224V24H197.418C197.138 24 196.922 23.96 196.77 23.88C196.618 23.792 196.498 23.62 196.41 23.364L196.146 22.476C195.834 22.756 195.53 23.004 195.234 23.22C194.938 23.428 194.63 23.604 194.31 23.748C193.99 23.892 193.646 24 193.278 24.072C192.918 24.152 192.518 24.192 192.078 24.192C191.558 24.192 191.078 24.124 190.638 23.988C190.198 23.844 189.818 23.632 189.498 23.352C189.178 23.072 188.93 22.724 188.754 22.308C188.578 21.892 188.49 21.408 188.49 20.856C188.49 20.544 188.542 20.236 188.646 19.932C188.75 19.62 188.918 19.324 189.15 19.044C189.39 18.764 189.698 18.5 190.074 18.252C190.45 18.004 190.91 17.788 191.454 17.604C192.006 17.42 192.646 17.272 193.374 17.16C194.102 17.04 194.934 16.968 195.87 16.944V16.224C195.87 15.4 195.694 14.792 195.342 14.4C194.99 14 194.482 13.8 193.818 13.8C193.338 13.8 192.938 13.856 192.618 13.968C192.306 14.08 192.03 14.208 191.79 14.352C191.55 14.488 191.33 14.612 191.13 14.724C190.938 14.836 190.722 14.892 190.482 14.892C190.274 14.892 190.098 14.84 189.954 14.736C189.81 14.624 189.694 14.496 189.606 14.352L189.078 13.404ZM205.494 24.192C204.422 24.192 203.598 23.892 203.022 23.292C202.454 22.684 202.17 21.848 202.17 20.784V13.908H200.91C200.75 13.908 200.614 13.856 200.502 13.752C200.39 13.648 200.334 13.492 200.334 13.284V12.108L202.314 11.784L202.938 8.424C202.978 8.264 203.054 8.14 203.166 8.052C203.278 7.964 203.422 7.92 203.598 7.92H205.134V11.796H208.422V13.908H205.134V20.58C205.134 20.964 205.226 21.264 205.41 21.48C205.602 21.696 205.862 21.804 206.19 21.804C206.374 21.804 206.526 21.784 206.646 21.744C206.774 21.696 206.882 21.648 206.97 21.6C207.066 21.552 207.15 21.508 207.222 21.468C207.294 21.42 207.366 21.396 207.438 21.396C207.526 21.396 207.598 21.42 207.654 21.468C207.71 21.508 207.77 21.572 207.834 21.66L208.722 23.1C208.29 23.46 207.794 23.732 207.234 23.916C206.674 24.1 206.094 24.192 205.494 24.192ZM216.823 18.744C215.967 18.784 215.247 18.86 214.663 18.972C214.079 19.076 213.611 19.212 213.259 19.38C212.907 19.548 212.655 19.744 212.503 19.968C212.351 20.192 212.275 20.436 212.275 20.7C212.275 21.22 212.427 21.592 212.731 21.816C213.043 22.04 213.447 22.152 213.943 22.152C214.551 22.152 215.075 22.044 215.515 21.828C215.963 21.604 216.399 21.268 216.823 20.82V18.744ZM210.031 13.404C211.447 12.108 213.151 11.46 215.143 11.46C215.863 11.46 216.507 11.58 217.075 11.82C217.643 12.052 218.123 12.38 218.515 12.804C218.907 13.22 219.203 13.72 219.403 14.304C219.611 14.888 219.715 15.528 219.715 16.224V24H218.371C218.091 24 217.875 23.96 217.723 23.88C217.571 23.792 217.451 23.62 217.363 23.364L217.099 22.476C216.787 22.756 216.483 23.004 216.187 23.22C215.891 23.428 215.583 23.604 215.263 23.748C214.943 23.892 214.599 24 214.231 24.072C213.871 24.152 213.471 24.192 213.031 24.192C212.511 24.192 212.031 24.124 211.591 23.988C211.151 23.844 210.771 23.632 210.451 23.352C210.131 23.072 209.883 22.724 209.707 22.308C209.531 21.892 209.443 21.408 209.443 20.856C209.443 20.544 209.495 20.236 209.599 19.932C209.703 19.62 209.871 19.324 210.103 19.044C210.343 18.764 210.651 18.5 211.027 18.252C211.403 18.004 211.863 17.788 212.407 17.604C212.959 17.42 213.599 17.272 214.327 17.16C215.055 17.04 215.887 16.968 216.823 16.944V16.224C216.823 15.4 216.647 14.792 216.295 14.4C215.943 14 215.435 13.8 214.771 13.8C214.291 13.8 213.891 13.856 213.571 13.968C213.259 14.08 212.983 14.208 212.743 14.352C212.503 14.488 212.283 14.612 212.083 14.724C211.891 14.836 211.675 14.892 211.435 14.892C211.227 14.892 211.051 14.84 210.907 14.736C210.763 14.624 210.647 14.496 210.559 14.352L210.031 13.404ZM232.447 24.192C231.375 24.192 230.551 23.892 229.975 23.292C229.407 22.684 229.123 21.848 229.123 20.784V13.908H227.863C227.703 13.908 227.567 13.856 227.455 13.752C227.343 13.648 227.287 13.492 227.287 13.284V12.108L229.267 11.784L229.891 8.424C229.931 8.264 230.007 8.14 230.119 8.052C230.231 7.964 230.375 7.92 230.551 7.92H232.087V11.796H235.375V13.908H232.087V20.58C232.087 20.964 232.179 21.264 232.363 21.48C232.555 21.696 232.815 21.804 233.143 21.804C233.327 21.804 233.479 21.784 233.599 21.744C233.727 21.696 233.835 21.648 233.923 21.6C234.019 21.552 234.103 21.508 234.175 21.468C234.247 21.42 234.319 21.396 234.391 21.396C234.479 21.396 234.551 21.42 234.607 21.468C234.663 21.508 234.723 21.572 234.787 21.66L235.675 23.1C235.243 23.46 234.747 23.732 234.187 23.916C233.627 24.1 233.047 24.192 232.447 24.192ZM240.069 13.824C240.453 13.088 240.909 12.512 241.437 12.096C241.965 11.672 242.589 11.46 243.309 11.46C243.877 11.46 244.333 11.584 244.677 11.832L244.485 14.052C244.445 14.196 244.385 14.3 244.305 14.364C244.233 14.42 244.133 14.448 244.005 14.448C243.885 14.448 243.705 14.428 243.465 14.388C243.233 14.348 243.005 14.328 242.781 14.328C242.453 14.328 242.161 14.376 241.905 14.472C241.649 14.568 241.417 14.708 241.209 14.892C241.009 15.068 240.829 15.284 240.669 15.54C240.517 15.796 240.373 16.088 240.237 16.416V24H237.273V11.688H239.013C239.317 11.688 239.529 11.744 239.649 11.856C239.769 11.96 239.849 12.152 239.889 12.432L240.069 13.824ZM253.806 16.428C253.806 16.044 253.75 15.684 253.638 15.348C253.534 15.004 253.374 14.704 253.158 14.448C252.942 14.192 252.666 13.992 252.33 13.848C252.002 13.696 251.618 13.62 251.178 13.62C250.322 13.62 249.646 13.864 249.15 14.352C248.662 14.84 248.35 15.532 248.214 16.428H253.806ZM248.154 18.216C248.202 18.848 248.314 19.396 248.49 19.86C248.666 20.316 248.898 20.696 249.186 21C249.474 21.296 249.814 21.52 250.206 21.672C250.606 21.816 251.046 21.888 251.526 21.888C252.006 21.888 252.418 21.832 252.762 21.72C253.114 21.608 253.418 21.484 253.674 21.348C253.938 21.212 254.166 21.088 254.358 20.976C254.558 20.864 254.75 20.808 254.934 20.808C255.182 20.808 255.366 20.9 255.486 21.084L256.338 22.164C256.01 22.548 255.642 22.872 255.234 23.136C254.826 23.392 254.398 23.6 253.95 23.76C253.51 23.912 253.058 24.02 252.594 24.084C252.138 24.148 251.694 24.18 251.262 24.18C250.406 24.18 249.61 24.04 248.874 23.76C248.138 23.472 247.498 23.052 246.954 22.5C246.41 21.94 245.982 21.252 245.67 20.436C245.358 19.612 245.202 18.66 245.202 17.58C245.202 16.74 245.338 15.952 245.61 15.216C245.882 14.472 246.27 13.828 246.774 13.284C247.286 12.732 247.906 12.296 248.634 11.976C249.37 11.656 250.198 11.496 251.118 11.496C251.894 11.496 252.61 11.62 253.266 11.868C253.922 12.116 254.486 12.48 254.958 12.96C255.43 13.432 255.798 14.016 256.062 14.712C256.334 15.4 256.47 16.188 256.47 17.076C256.47 17.524 256.422 17.828 256.326 17.988C256.23 18.14 256.046 18.216 255.774 18.216H248.154ZM266.626 16.428C266.626 16.044 266.57 15.684 266.458 15.348C266.354 15.004 266.194 14.704 265.978 14.448C265.762 14.192 265.486 13.992 265.15 13.848C264.822 13.696 264.438 13.62 263.998 13.62C263.142 13.62 262.466 13.864 261.97 14.352C261.482 14.84 261.17 15.532 261.034 16.428H266.626ZM260.974 18.216C261.022 18.848 261.134 19.396 261.31 19.86C261.486 20.316 261.718 20.696 262.006 21C262.294 21.296 262.634 21.52 263.026 21.672C263.426 21.816 263.866 21.888 264.346 21.888C264.826 21.888 265.238 21.832 265.582 21.72C265.934 21.608 266.238 21.484 266.494 21.348C266.758 21.212 266.986 21.088 267.178 20.976C267.378 20.864 267.57 20.808 267.754 20.808C268.002 20.808 268.186 20.9 268.306 21.084L269.158 22.164C268.83 22.548 268.462 22.872 268.054 23.136C267.646 23.392 267.218 23.6 266.77 23.76C266.33 23.912 265.878 24.02 265.414 24.084C264.958 24.148 264.514 24.18 264.082 24.18C263.226 24.18 262.43 24.04 261.694 23.76C260.958 23.472 260.318 23.052 259.774 22.5C259.23 21.94 258.802 21.252 258.49 20.436C258.178 19.612 258.022 18.66 258.022 17.58C258.022 16.74 258.158 15.952 258.43 15.216C258.702 14.472 259.09 13.828 259.594 13.284C260.106 12.732 260.726 12.296 261.454 11.976C262.19 11.656 263.018 11.496 263.938 11.496C264.714 11.496 265.43 11.62 266.086 11.868C266.742 12.116 267.306 12.48 267.778 12.96C268.25 13.432 268.618 14.016 268.882 14.712C269.154 15.4 269.29 16.188 269.29 17.076C269.29 17.524 269.242 17.828 269.146 17.988C269.05 18.14 268.866 18.216 268.594 18.216H260.974Z" fill="#199DFF"/>
<rect x="62" y="136" width="76" height="44" fill="#D5D5D5"/>
<rect x="307" y="136" width="76" height="44" fill="#199DFF"/>
<rect x="122" y="222" width="75" height="44" fill="#D5D5D5"/>
<rect y="222" width="76" height="44" fill="#D5D5D5"/>
<rect x="243" y="222" width="76" height="44" fill="#D5D5D5"/>
<rect x="369" y="222" width="76" height="44" fill="#199DFF"/>
<rect x="180" y="52" width="76" height="44" fill="#199DFF"/>
<line x1="100" y1="115.5" x2="220" y2="115.5" stroke="#D4D4D4" stroke-width="3"/>
<line x1="218" y1="115.5" x2="346" y2="115.5" stroke="#199DFF" stroke-width="3"/>
<line x1="346" y1="201.5" x2="408" y2="201.5" stroke="#199DFF" stroke-width="3"/>
<line x1="283" y1="201.5" x2="344" y2="201.5" stroke="#D4D4D4" stroke-width="3"/>
<line x1="39" y1="201.5" x2="100" y2="201.5" stroke="#D4D4D4" stroke-width="3"/>
<line x1="98" y1="201.5" x2="160" y2="201.5" stroke="#D4D4D4" stroke-width="3"/>
<line x1="344.5" y1="136" x2="344.5" y2="114" stroke="#199DFF" stroke-width="3"/>
<line x1="408.5" y1="223" x2="408.5" y2="200" stroke="#199DFF" stroke-width="3"/>
<line x1="282.5" y1="223" x2="282.5" y2="200" stroke="#D4D4D4" stroke-width="3"/>
<line x1="38.5" y1="223" x2="38.5" y2="200" stroke="#D4D4D4" stroke-width="3"/>
<line x1="158.5" y1="223" x2="158.5" y2="200" stroke="#D4D4D4" stroke-width="3"/>
<line x1="98.5" y1="136" x2="98.5" y2="114" stroke="#D4D4D4" stroke-width="3"/>
<line x1="98.5" y1="203" x2="98.5" y2="180" stroke="#D4D4D4" stroke-width="3"/>
<line x1="218.5" y1="117" x2="218.5" y2="95" stroke="#199DFF" stroke-width="3"/>
<line x1="345.5" y1="203" x2="345.5" y2="180" stroke="#199DFF" stroke-width="3"/>
</svg>
