<svg width="114" height="131" viewBox="0 0 114 131" fill="none" xmlns="http://www.w3.org/2000/svg">
<path d="M40.2671 24.4069H13.426C12.846 24.4069 12.2897 24.1794 11.8796 23.7744C11.4695 23.3695 11.2391 22.8202 11.2391 22.2475V13.3654C11.2391 12.7927 11.4695 12.2435 11.8796 11.8385C12.2897 11.4336 12.846 11.2061 13.426 11.2061H40.2671C40.8471 11.2061 41.4033 11.4336 41.8135 11.8385C42.2236 12.2435 42.454 12.7927 42.454 13.3654V22.2619C42.4502 22.8321 42.218 23.3777 41.8083 23.7795C41.3986 24.1814 40.8446 24.4069 40.2671 24.4069ZM42.454 35.4628V33.1739C42.454 32.6012 42.2236 32.0519 41.8135 31.647C41.4033 31.242 40.8471 31.0145 40.2671 31.0145H13.426C12.846 31.0145 12.2897 31.242 11.8796 31.647C11.4695 32.0519 11.2391 32.6012 11.2391 33.1739V35.4628C11.2391 36.0355 11.4695 36.5847 11.8796 36.9897C12.2897 37.3946 12.846 37.6221 13.426 37.6221H40.2671C40.8471 37.6221 41.4033 37.3946 41.8135 36.9897C42.2236 36.5847 42.454 36.0355 42.454 35.4628V35.4628ZM42.454 48.678V46.3891C42.454 45.8164 42.2236 45.2672 41.8135 44.8622C41.4033 44.4573 40.8471 44.2298 40.2671 44.2298H13.426C12.846 44.2298 12.2897 44.4573 11.8796 44.8622C11.4695 45.2672 11.2391 45.8164 11.2391 46.3891V48.678C11.2391 49.2507 11.4695 49.8 11.8796 50.2049C12.2897 50.6099 12.846 50.8374 13.426 50.8374H40.2671C40.8471 50.8374 41.4033 50.6099 41.8135 50.2049C42.2236 49.8 42.454 49.2507 42.454 48.678V48.678ZM71.4383 108.031V116.928C71.4383 117.501 71.6687 118.05 72.0788 118.455C72.4889 118.86 73.0452 119.087 73.6252 119.087H100.466C101.046 119.087 101.603 118.86 102.013 118.455C102.423 118.05 102.653 117.501 102.653 116.928V108.031C102.653 107.459 102.423 106.91 102.013 106.505C101.603 106.1 101.046 105.872 100.466 105.872H73.6252C73.0452 105.872 72.4889 106.1 72.0788 106.505C71.6687 106.91 71.4383 107.459 71.4383 108.031ZM71.4383 94.8162V97.1051C71.4383 97.6778 71.6687 98.227 72.0788 98.632C72.4889 99.037 73.0452 99.2645 73.6252 99.2645H100.466C101.046 99.2645 101.603 99.037 102.013 98.632C102.423 98.227 102.653 97.6778 102.653 97.1051V94.8306C102.653 94.2579 102.423 93.7087 102.013 93.3037C101.603 92.8987 101.046 92.6712 100.466 92.6712H73.6252C73.0452 92.6712 72.4889 92.8987 72.0788 93.3037C71.6687 93.7087 71.4383 94.2579 71.4383 94.8306V94.8162ZM71.4383 81.601V83.8899C71.4383 84.4626 71.6687 85.0118 72.0788 85.4168C72.4889 85.8217 73.0452 86.0492 73.6252 86.0492H100.466C101.046 86.0492 101.603 85.8217 102.013 85.4168C102.423 85.0118 102.653 84.4626 102.653 83.8899V81.6154C102.653 81.0427 102.423 80.4934 102.013 80.0885C101.603 79.6835 101.046 79.456 100.466 79.456H73.6252C73.0452 79.456 72.4889 79.6835 72.0788 80.0885C71.6687 80.4934 71.4383 81.0427 71.4383 81.6154V81.601ZM53.5928 6.7434V55.2425C53.5891 56.98 52.8924 58.6462 51.6535 59.8802C50.4146 61.1142 48.7333 61.8168 46.9737 61.8357H6.7777C5.00539 61.8357 3.30545 61.1415 2.05086 59.9054C0.79628 58.6694 0.0895241 56.9924 0.0856628 55.2425L0.0856628 6.80098C0.0856628 5.04853 0.790715 3.36786 2.04572 2.12869C3.30072 0.889517 5.00286 0.193359 6.7777 0.193359L46.9154 0.193359C48.6902 0.193359 50.3923 0.889517 51.6473 2.12869C52.9023 3.36786 53.6074 5.04853 53.6074 6.80098L53.5928 6.7434ZM49.146 4.59844H4.54702V57.4306H49.146V4.59844ZM113.807 6.80098V55.2425C113.803 56.98 113.106 58.6462 111.867 59.8802C110.628 61.1142 108.947 61.8168 107.187 61.8357H66.9769C65.2021 61.8357 63.4999 61.1395 62.2449 59.9004C60.9899 58.6612 60.2849 56.9805 60.2849 55.2281V6.80098C60.2849 5.04853 60.9899 3.36786 62.2449 2.12869C63.4999 0.889517 65.2021 0.193359 66.9769 0.193359L107.115 0.193359C108.889 0.193359 110.592 0.889517 111.847 2.12869C113.102 3.36786 113.807 5.04853 113.807 6.80098V6.80098ZM109.345 4.59844H64.7462V57.4306H109.345V4.59844ZM24.6086 116.885V81.6154C24.6086 81.0427 24.3782 80.4934 23.968 80.0885C23.5579 79.6835 23.0016 79.456 22.4216 79.456H13.426C12.846 79.456 12.2897 79.6835 11.8796 80.0885C11.4695 80.4934 11.2391 81.0427 11.2391 81.6154V116.928C11.2391 117.501 11.4695 118.05 11.8796 118.455C12.2897 118.86 12.846 119.087 13.426 119.087H22.4362C23.0137 119.084 23.5662 118.854 23.9732 118.45C24.3802 118.045 24.6086 117.498 24.6086 116.928V116.885ZM42.454 83.9043V81.6154C42.454 81.0427 42.2236 80.4934 41.8135 80.0885C41.4033 79.6835 40.8471 79.456 40.2671 79.456H33.4875C32.9075 79.456 32.3513 79.6835 31.9411 80.0885C31.531 80.4934 31.3006 81.0427 31.3006 81.6154V83.9043C31.3006 84.477 31.531 85.0262 31.9411 85.4312C32.3513 85.8361 32.9075 86.0636 33.4875 86.0636H40.2671C40.8471 86.0636 41.4033 85.8361 41.8135 85.4312C42.2236 85.0262 42.454 84.477 42.454 83.9043V83.9043ZM42.454 97.1195V94.8306C42.454 94.2579 42.2236 93.7087 41.8135 93.3037C41.4033 92.8987 40.8471 92.6712 40.2671 92.6712H33.4875C32.9075 92.6712 32.3513 92.8987 31.9411 93.3037C31.531 93.7087 31.3006 94.2579 31.3006 94.8306V97.1195C31.3006 97.6922 31.531 98.2414 31.9411 98.6464C32.3513 99.0514 32.9075 99.2789 33.4875 99.2789H40.2671C40.5555 99.2789 40.8411 99.2225 41.1073 99.1131C41.3736 99.0037 41.6154 98.8434 41.8186 98.6413C42.0219 98.4393 42.1827 98.1995 42.2917 97.9359C42.4008 97.6722 42.4559 97.3899 42.454 97.1051V97.1195ZM42.454 110.335V108.031C42.454 107.459 42.2236 106.91 41.8135 106.505C41.4033 106.1 40.8471 105.872 40.2671 105.872H33.4875C32.9075 105.872 32.3513 106.1 31.9411 106.505C31.531 106.91 31.3006 107.459 31.3006 108.031V110.32C31.3006 110.893 31.531 111.442 31.9411 111.847C32.3513 112.252 32.9075 112.48 33.4875 112.48H40.2671C40.8471 112.48 41.4033 112.252 41.8135 111.847C42.2236 111.442 42.454 110.893 42.454 110.32V110.335ZM91.4706 50.8374H100.481C101.061 50.8374 101.617 50.6099 102.027 50.2049C102.437 49.8 102.668 49.2507 102.668 48.678V13.3654C102.668 12.7927 102.437 12.2435 102.027 11.8385C101.617 11.4336 101.061 11.2061 100.481 11.2061H91.4706C90.8906 11.2061 90.3344 11.4336 89.9242 11.8385C89.5141 12.2435 89.2837 12.7927 89.2837 13.3654V48.678C89.2837 49.2507 89.5141 49.8 89.9242 50.2049C90.3344 50.6099 90.8906 50.8374 91.4706 50.8374V50.8374ZM73.6252 17.8137H80.4047C80.9847 17.8137 81.541 17.5862 81.9511 17.1812C82.3613 16.7763 82.5917 16.227 82.5917 15.6543V13.3654C82.5917 12.7927 82.3613 12.2435 81.9511 11.8385C81.541 11.4336 80.9847 11.2061 80.4047 11.2061H73.6252C73.0452 11.2061 72.4889 11.4336 72.0788 11.8385C71.6687 12.2435 71.4383 12.7927 71.4383 13.3654V15.6543C71.4383 16.227 71.6687 16.7763 72.0788 17.1812C72.4889 17.5862 73.0452 17.8137 73.6252 17.8137V17.8137ZM73.6252 31.0289H80.4047C80.9847 31.0289 81.541 30.8014 81.9511 30.3965C82.3613 29.9915 82.5917 29.4423 82.5917 28.8696V26.5663C82.5917 25.9936 82.3613 25.4443 81.9511 25.0394C81.541 24.6344 80.9847 24.4069 80.4047 24.4069H73.6252C73.0452 24.4069 72.4889 24.6344 72.0788 25.0394C71.6687 25.4443 71.4383 25.9936 71.4383 26.5663V28.8552C71.4383 29.4279 71.6687 29.9771 72.0788 30.3821C72.4889 30.787 73.0452 31.0145 73.6252 31.0145V31.0289ZM73.6252 44.2442H80.4047C80.9847 44.2442 81.541 44.0167 81.9511 43.6117C82.3613 43.2067 82.5917 42.6575 82.5917 42.0848V39.7815C82.5917 39.2088 82.3613 38.6596 81.9511 38.2546C81.541 37.8496 80.9847 37.6221 80.4047 37.6221H73.6252C73.0452 37.6221 72.4889 37.8496 72.0788 38.2546C71.6687 38.6596 71.4383 39.2088 71.4383 39.7815V42.0704C71.4383 42.6431 71.6687 43.1923 72.0788 43.5973C72.4889 44.0023 73.0452 44.2298 73.6252 44.2298V44.2442ZM53.6074 75.0509V123.492C53.6037 125.23 52.9069 126.896 51.6681 128.13C50.4292 129.364 48.7479 130.067 46.9883 130.086H6.7777C5.00539 130.086 3.30545 129.391 2.05086 128.155C0.79628 126.919 0.0895241 125.242 0.0856628 123.492L0.0856628 75.0509C0.0856628 73.2985 0.790715 71.6178 2.04572 70.3786C3.30072 69.1395 5.00286 68.4433 6.7777 68.4433H46.9154C48.6902 68.4433 50.3923 69.1395 51.6473 70.3786C52.9023 71.6178 53.6074 73.2985 53.6074 75.0509V75.0509ZM49.146 72.8484H4.54702V125.695H49.146V72.8484ZM113.807 75.0509V123.492C113.803 125.23 113.106 126.896 111.867 128.13C110.628 129.364 108.947 130.067 107.187 130.086H66.9769C65.2021 130.086 63.4999 129.389 62.2449 128.15C60.9899 126.911 60.2849 125.23 60.2849 123.478V75.0509C60.2849 73.2985 60.9899 71.6178 62.2449 70.3786C63.4999 69.1395 65.2021 68.4433 66.9769 68.4433H107.115C108.889 68.4433 110.592 69.1395 111.847 70.3786C113.102 71.6178 113.807 73.2985 113.807 75.0509V75.0509ZM109.345 72.8484H64.7462V125.695H109.345V72.8484Z" fill="url(#paint0_linear)"/>
<defs>
<linearGradient id="paint0_linear" x1="56.9461" y1="0.193359" x2="56.9461" y2="130.086" gradientUnits="userSpaceOnUse">
<stop stop-color="#199DFF"/>
<stop offset="1" stop-color="#027FDC"/>
</linearGradient>
</defs>
</svg>
