<svg width="115" height="115" viewBox="0 0 115 115" fill="none" xmlns="http://www.w3.org/2000/svg">
<path fill-rule="evenodd" clip-rule="evenodd" d="M9.91379 42.8814C12.0294 42.8814 13.9824 42.2147 15.5944 41.0979L33.7882 51.8299C33.7604 52.095 33.7069 52.3542 33.7069 52.6271C33.7069 56.2506 36.2428 59.2757 39.6552 60.1469V78.163C35.1365 79.0693 31.7241 83.0066 31.7241 87.7119C31.7241 89.1172 32.0414 90.4485 32.5906 91.6569L21.9908 100.588C20.7813 99.8531 19.3696 99.4068 17.8448 99.4068C13.4709 99.4068 9.91379 102.904 9.91379 107.203C9.91379 111.503 13.4709 115 17.8448 115C22.2188 115 25.7759 111.503 25.7759 107.203C25.7759 105.819 25.3773 104.537 24.7309 103.41L34.9144 94.8302C36.685 96.446 39.0366 97.4576 41.6379 97.4576C44.7053 97.4576 47.4157 96.0523 49.2359 93.8946L60.5277 103.41C59.8813 104.537 59.4828 105.819 59.4828 107.203C59.4828 111.503 63.0398 115 67.4138 115C71.7878 115 75.3448 111.503 75.3448 107.203C75.3448 102.904 71.7878 99.4068 67.4138 99.4068C65.8891 99.4068 64.4773 99.8531 63.2678 100.588L51.1314 90.3608C51.3772 89.5129 51.5517 88.6358 51.5517 87.7119C51.5517 83.0066 48.1394 79.0693 43.6207 78.163V60.1469C45.4012 59.6928 46.9339 58.6539 47.9986 57.2388L65.5877 61.9538C66.3431 66.5986 70.4117 70.1695 75.3448 70.1695C77.3355 70.1695 79.1834 69.5769 80.7399 68.579L96.8578 86.1857C95.795 87.7372 95.1724 89.6025 95.1724 91.6102C95.1724 96.984 99.6197 101.356 105.086 101.356C110.553 101.356 115 96.984 115 91.6102C115 86.2364 110.553 81.8644 105.086 81.8644C103.096 81.8644 101.248 82.4569 99.6911 83.4549L83.5733 65.8482C84.636 64.2967 85.2586 62.4314 85.2586 60.4237C85.2586 60.1801 85.2031 59.954 85.1853 59.7142L99.7863 52.5394C101.194 53.7908 103.042 54.5763 105.086 54.5763C109.46 54.5763 113.017 51.0795 113.017 46.7797C113.017 42.4798 109.46 38.983 105.086 38.983C100.712 38.983 97.1552 42.4798 97.1552 46.7797C97.1552 47.649 97.3336 48.4715 97.6033 49.2531L84.0749 55.9036C82.7068 53.3639 80.272 51.4654 77.3276 50.8748V34.808C80.7399 33.9367 83.2759 30.9116 83.2759 27.2881C83.2759 26.374 83.0855 25.5086 82.7901 24.6938L94.992 14.412C96.2015 15.1469 97.6132 15.5932 99.1379 15.5932C103.512 15.5932 107.069 12.0964 107.069 7.79661C107.069 3.49678 103.512 -2.74181e-06 99.1379 -2.74181e-06C94.764 -2.74181e-06 91.2069 3.49678 91.2069 7.79661C91.2069 9.18051 91.6054 10.463 92.2518 11.5897L80.5496 21.4504C79.1517 20.2458 77.3454 19.4915 75.3448 19.4915C73.3442 19.4915 71.5379 20.2458 70.1401 21.4504L58.4378 11.5897C59.0842 10.463 59.4828 9.18051 59.4828 7.79661C59.4828 3.49678 55.9257 -2.74181e-06 51.5517 -2.74181e-06C47.1778 -2.74181e-06 43.6207 3.49678 43.6207 7.79661C43.6207 12.0964 47.1778 15.5932 51.5517 15.5932C53.0765 15.5932 54.4882 15.1469 55.6977 14.412L67.8996 24.6938C67.6041 25.5086 67.4138 26.374 67.4138 27.2881C67.4138 30.9116 69.9497 33.9367 73.3621 34.808V50.8748C69.6622 51.6155 66.7397 54.4047 65.7899 57.9678L49.4698 53.5919C49.5095 53.2723 49.569 52.9585 49.569 52.6271C49.569 48.3273 46.0119 44.8305 41.6379 44.8305C38.9791 44.8305 36.6354 46.1325 35.1959 48.1129L18.3544 38.18C19.2704 36.7025 19.8276 34.9873 19.8276 33.1356C19.8276 27.7618 15.3803 23.3898 9.91379 23.3898C4.44733 23.3898 -1.19209e-06 27.7618 -1.19209e-06 33.1356C-1.19209e-06 38.5094 4.44733 42.8814 9.91379 42.8814Z" fill="url(#paint0_linear)"/>
<defs>
<linearGradient id="paint0_linear" x1="57.5" y1="115" x2="57.5" y2="0" gradientUnits="userSpaceOnUse">
<stop offset="0.0625" stop-color="#007EDB"/>
<stop offset="1" stop-color="#199DFF"/>
</linearGradient>
</defs>
</svg>
