<svg width="115" height="115" viewBox="0 0 115 115" fill="none" xmlns="http://www.w3.org/2000/svg">
<path d="M101.079 19.9738L113.426 7.62642C115.121 5.93168 115.121 3.26852 113.426 1.57379C111.732 -0.12095 109.068 -0.12095 107.374 1.57379L1.5737 107.374C-0.121041 109.069 -0.121041 111.732 1.5737 113.426C2.42106 114.274 3.51054 114.637 4.60001 114.637C5.68948 114.637 6.77896 114.274 7.62633 113.426L19.9737 101.079C30.0211 109.795 43.2158 115 57.5 115C89.2158 115 115 89.2159 115 57.5001C115 43.2159 109.674 30.0212 101.079 19.9738ZM100.474 34.0159H86.9158L95.0263 26.0264C97.0842 28.5685 98.9 31.2317 100.474 34.0159ZM78.079 57.5001C78.079 62.8264 77.7158 67.7896 77.1105 72.3896H48.6632L77.2316 43.8212C77.7158 48.058 78.079 52.658 78.079 57.5001ZM26.0263 95.0264L32.8053 88.2475C34.6211 93.9369 36.9211 99.0211 39.5842 103.016C34.6211 101.079 30.0211 98.2948 26.0263 95.0264ZM57.5 106.526C50.7211 106.526 43.4579 96.8422 39.7053 81.3475L40.1895 80.8633H75.5368C71.6632 96.7212 64.279 106.526 57.5 106.526ZM75.4158 103.016C79.1684 97.2054 82.1947 89.7001 84.1316 80.8633H100.474C95.0263 90.9106 86.1895 98.779 75.4158 103.016ZM85.7053 72.3896C86.3105 67.6685 86.6737 62.7054 86.6737 57.5001C86.6737 52.2948 86.3105 47.3317 85.7053 42.6106H104.226C105.679 47.3317 106.526 52.2948 106.526 57.5001C106.526 62.7054 105.679 67.6685 104.226 72.3896H85.7053Z" fill="url(#paint0_linear)"/>
<path d="M16.2211 83.7684C15.6158 82.8 15.0105 81.9526 14.5263 80.9842H19.0053L27.4789 72.5105H10.8947C9.44211 67.7895 8.59474 62.8263 8.59474 57.6211C8.59474 52.4158 9.44211 47.4526 10.8947 42.7316H29.4158C28.8105 47.4526 28.4474 52.4158 28.4474 57.6211C28.4474 62.2211 28.6895 66.7 29.1737 70.9368L37.0421 63.0684C36.9211 61.1316 36.9211 59.3158 36.9211 57.5C36.9211 52.1737 37.2842 47.2105 37.8895 42.6105H57.2579L65.7316 34.1368H39.5842C43.3368 18.4 50.7211 8.59474 57.5 8.59474C63.1895 8.59474 69.2421 15.3737 73.2368 26.7526L79.7737 20.2158C78.4421 17.1895 76.9895 14.4053 75.4158 11.9842C78.3211 13.0737 81.1053 14.5263 83.7684 16.2211L89.9421 10.0474C80.6211 3.75263 69.4842 0 57.5 0C25.7842 0 0 25.7842 0 57.5C0 69.4842 3.75263 80.6211 10.0474 89.9421L16.2211 83.7684ZM39.5842 11.9842C35.8316 17.7947 32.8053 25.3 30.8684 34.1368H14.5263C19.9737 24.0895 28.8105 16.2211 39.5842 11.9842Z" fill="url(#paint1_linear)"/>
<defs>
<linearGradient id="paint0_linear" x1="57.6513" y1="0.302734" x2="57.6513" y2="115" gradientUnits="userSpaceOnUse">
<stop stop-color="#0989E7"/>
<stop offset="1" stop-color="#3E9DE3"/>
</linearGradient>
<linearGradient id="paint1_linear" x1="-1.65437e-07" y1="56.2895" x2="115" y2="56.2895" gradientUnits="userSpaceOnUse">
<stop stop-color="#189CFE"/>
<stop offset="1" stop-color="#0F91F0"/>
</linearGradient>
</defs>
</svg>
