<svg width="247" height="40" viewBox="0 0 247 40" fill="none" xmlns="http://www.w3.org/2000/svg">
<circle cx="18.3737" cy="20.3734" r="7.16813" fill="#49AFEA"/>
<circle cx="7.16824" cy="31.5786" r="1.56545" fill="#49AFEA" fill-opacity="0.8"/>
<circle cx="7.16824" cy="25.9763" r="1.56545" fill="#49AFEA" fill-opacity="0.8"/>
<circle cx="7.16824" cy="20.3736" r="1.56545" fill="#49AFEA" fill-opacity="0.8"/>
<circle cx="7.16824" cy="14.7708" r="1.56545" fill="#49AFEA" fill-opacity="0.8"/>
<circle cx="7.16824" cy="9.16897" r="1.56545" fill="#49AFEA" fill-opacity="0.8"/>
<circle cx="12.771" cy="31.5786" r="1.56545" fill="#49AFEA" fill-opacity="0.8"/>
<circle cx="12.771" cy="9.16824" r="1.56545" fill="#49AFEA" fill-opacity="0.8"/>
<circle cx="18.3736" cy="31.5786" r="1.56545" fill="#49AFEA" fill-opacity="0.8"/>
<circle cx="18.3736" cy="9.16824" r="1.56545" fill="#49AFEA" fill-opacity="0.8"/>
<circle cx="23.9763" cy="31.5786" r="1.56545" fill="#49AFEA" fill-opacity="0.8"/>
<circle cx="23.9763" cy="9.16824" r="1.56545" fill="#49AFEA" fill-opacity="0.8"/>
<circle cx="29.5789" cy="31.5786" r="1.56545" fill="#49AFEA" fill-opacity="0.8"/>
<circle cx="29.5789" cy="25.9763" r="1.56545" fill="#49AFEA" fill-opacity="0.8"/>
<circle cx="29.5789" cy="20.3736" r="1.56545" fill="#49AFEA" fill-opacity="0.8"/>
<circle cx="29.5789" cy="14.7708" r="1.56545" fill="#49AFEA" fill-opacity="0.8"/>
<circle cx="29.5789" cy="9.16824" r="1.56545" fill="#49AFEA" fill-opacity="0.8"/>
<circle cx="1.56545" cy="37.1817" r="1.56545" fill="#49AFEA" fill-opacity="0.6"/>
<circle cx="1.56545" cy="31.5789" r="1.56545" fill="#49AFEA" fill-opacity="0.6"/>
<circle cx="1.56545" cy="25.9766" r="1.56545" fill="#49AFEA" fill-opacity="0.6"/>
<circle cx="1.56545" cy="20.3738" r="1.56545" fill="#49AFEA" fill-opacity="0.6"/>
<circle cx="1.56545" cy="14.7708" r="1.56545" fill="#49AFEA" fill-opacity="0.6"/>
<circle cx="1.56545" cy="9.16848" r="1.56545" fill="#49AFEA" fill-opacity="0.6"/>
<circle cx="1.56545" cy="3.56545" r="1.56545" fill="#49AFEA" fill-opacity="0.6"/>
<circle cx="7.16824" cy="37.1817" r="1.56545" fill="#49AFEA" fill-opacity="0.6"/>
<circle cx="7.16824" cy="3.56545" r="1.56545" fill="#49AFEA" fill-opacity="0.6"/>
<circle cx="12.771" cy="37.1817" r="1.56545" fill="#49AFEA" fill-opacity="0.6"/>
<circle cx="12.771" cy="3.56545" r="1.56545" fill="#49AFEA" fill-opacity="0.6"/>
<circle cx="18.3733" cy="37.1817" r="1.56545" fill="#49AFEA" fill-opacity="0.6"/>
<circle cx="18.3733" cy="3.56545" r="1.56545" fill="#49AFEA" fill-opacity="0.6"/>
<circle cx="23.9761" cy="37.1817" r="1.56545" fill="#49AFEA" fill-opacity="0.6"/>
<circle cx="23.9761" cy="3.56545" r="1.56545" fill="#49AFEA" fill-opacity="0.6"/>
<circle cx="29.5789" cy="37.1817" r="1.56545" fill="#49AFEA" fill-opacity="0.6"/>
<circle cx="29.5789" cy="3.56545" r="1.56545" fill="#49AFEA" fill-opacity="0.6"/>
<circle cx="35.1814" cy="37.1817" r="1.56545" fill="#49AFEA" fill-opacity="0.6"/>
<circle cx="35.1814" cy="31.5789" r="1.56545" fill="#49AFEA" fill-opacity="0.6"/>
<circle cx="35.1814" cy="25.9766" r="1.56545" fill="#49AFEA" fill-opacity="0.6"/>
<circle cx="35.1814" cy="20.3738" r="1.56545" fill="#49AFEA" fill-opacity="0.6"/>
<circle cx="35.1814" cy="14.7708" r="1.56545" fill="#49AFEA" fill-opacity="0.6"/>
<circle cx="35.1814" cy="9.16848" r="1.56545" fill="#49AFEA" fill-opacity="0.6"/>
<circle cx="35.1814" cy="3.56545" r="1.56545" fill="#49AFEA" fill-opacity="0.6"/>
<path d="M68.4268 28.192C68.5335 28.192 68.6242 28.2293 68.6988 28.304L69.3388 28.992C68.8695 29.4933 68.3575 29.9467 67.8028 30.352C67.2588 30.7467 66.6562 31.088 65.9948 31.376C65.3442 31.6533 64.6242 31.8667 63.8348 32.016C63.0562 32.176 62.1975 32.256 61.2588 32.256C59.6908 32.256 58.2508 31.984 56.9388 31.44C55.6375 30.8853 54.5175 30.1067 53.5788 29.104C52.6402 28.0907 51.9095 26.8693 51.3868 25.44C50.8748 24.0107 50.6188 22.4213 50.6188 20.672C50.6188 18.9547 50.8855 17.3867 51.4188 15.968C51.9522 14.5493 52.6988 13.3333 53.6588 12.32C54.6188 11.296 55.7708 10.5067 57.1148 9.952C58.4588 9.38667 59.9415 9.104 61.5628 9.104C63.1095 9.104 64.4802 9.344 65.6748 9.824C66.8695 10.304 67.9575 10.9813 68.9388 11.856L68.4428 12.576C68.3575 12.704 68.2242 12.768 68.0428 12.768C67.9148 12.768 67.7068 12.6507 67.4188 12.416C67.1308 12.1813 66.7308 11.9253 66.2188 11.648C65.7068 11.36 65.0668 11.0987 64.2988 10.864C63.5415 10.6293 62.6295 10.512 61.5628 10.512C60.1975 10.512 58.9442 10.7467 57.8028 11.216C56.6722 11.6853 55.6962 12.3573 54.8748 13.232C54.0642 14.1067 53.4295 15.1733 52.9708 16.432C52.5122 17.6907 52.2828 19.104 52.2828 20.672C52.2828 22.272 52.5122 23.7013 52.9708 24.96C53.4402 26.2187 54.0802 27.2853 54.8908 28.16C55.7015 29.024 56.6562 29.6907 57.7548 30.16C58.8642 30.6187 60.0588 30.848 61.3388 30.848C62.1495 30.848 62.8695 30.7947 63.4988 30.688C64.1388 30.5813 64.7255 30.4213 65.2588 30.208C65.7922 29.9947 66.2882 29.7333 66.7468 29.424C67.2055 29.1147 67.6588 28.752 68.1068 28.336C68.1602 28.2933 68.2135 28.2613 68.2668 28.24C68.3202 28.208 68.3735 28.192 68.4268 28.192ZM78.9873 15.824C80.1287 15.824 81.1473 16.0213 82.0433 16.416C82.95 16.8 83.7127 17.3493 84.3313 18.064C84.95 18.7787 85.4193 19.6427 85.7393 20.656C86.07 21.6587 86.2353 22.784 86.2353 24.032C86.2353 25.28 86.07 26.4053 85.7393 27.408C85.4193 28.4107 84.95 29.2693 84.3313 29.984C83.7127 30.6987 82.95 31.248 82.0433 31.632C81.1473 32.016 80.1287 32.208 78.9873 32.208C77.846 32.208 76.822 32.016 75.9153 31.632C75.0193 31.248 74.2567 30.6987 73.6273 29.984C73.0087 29.2693 72.534 28.4107 72.2033 27.408C71.8833 26.4053 71.7233 25.28 71.7233 24.032C71.7233 22.784 71.8833 21.6587 72.2033 20.656C72.534 19.6427 73.0087 18.7787 73.6273 18.064C74.2567 17.3493 75.0193 16.8 75.9153 16.416C76.822 16.0213 77.846 15.824 78.9873 15.824ZM78.9873 31.008C79.9367 31.008 80.7633 30.848 81.4673 30.528C82.182 30.1973 82.774 29.728 83.2433 29.12C83.7233 28.512 84.0807 27.7813 84.3153 26.928C84.55 26.064 84.6673 25.0987 84.6673 24.032C84.6673 22.976 84.55 22.016 84.3153 21.152C84.0807 20.288 83.7233 19.552 83.2433 18.944C82.774 18.3253 82.182 17.8507 81.4673 17.52C80.7633 17.1893 79.9367 17.024 78.9873 17.024C78.038 17.024 77.206 17.1893 76.4913 17.52C75.7873 17.8507 75.1953 18.3253 74.7153 18.944C74.246 19.552 73.8887 20.288 73.6433 21.152C73.4087 22.016 73.2913 22.976 73.2913 24.032C73.2913 25.0987 73.4087 26.064 73.6433 26.928C73.8887 27.7813 74.246 28.512 74.7153 29.12C75.1953 29.728 75.7873 30.1973 76.4913 30.528C77.206 30.848 78.038 31.008 78.9873 31.008ZM91.9831 18.864C92.7191 17.9467 93.5671 17.2107 94.5271 16.656C95.4977 16.1013 96.5751 15.824 97.7591 15.824C98.6337 15.824 99.4017 15.9627 100.063 16.24C100.735 16.5173 101.29 16.9173 101.727 17.44C102.164 17.9627 102.495 18.592 102.719 19.328C102.943 20.064 103.055 20.896 103.055 21.824V32H101.519V21.824C101.519 20.3307 101.178 19.1627 100.495 18.32C99.8124 17.4667 98.7724 17.04 97.3751 17.04C96.3404 17.04 95.3697 17.3067 94.4631 17.84C93.5671 18.3627 92.7671 19.0933 92.0631 20.032V32H90.5271V16.08H91.3751C91.6417 16.08 91.7964 16.2133 91.8391 16.48L91.9831 18.864ZM118.985 19.504C118.377 18.5867 117.699 17.9413 116.953 17.568C116.217 17.1947 115.374 17.008 114.425 17.008C113.486 17.008 112.665 17.1787 111.961 17.52C111.257 17.8613 110.665 18.3467 110.185 18.976C109.715 19.5947 109.358 20.3413 109.113 21.216C108.878 22.08 108.761 23.0347 108.761 24.08C108.761 26.448 109.193 28.192 110.057 29.312C110.931 30.4213 112.19 30.976 113.833 30.976C114.878 30.976 115.833 30.704 116.697 30.16C117.561 29.616 118.323 28.8533 118.985 27.872V19.504ZM120.505 8.72V32H119.673C119.395 32 119.235 31.8613 119.193 31.584L119.033 29.072C118.329 30.032 117.507 30.7947 116.569 31.36C115.63 31.9253 114.574 32.208 113.401 32.208C111.438 32.208 109.913 31.5307 108.825 30.176C107.737 28.8213 107.193 26.7893 107.193 24.08C107.193 22.9173 107.342 21.8347 107.641 20.832C107.95 19.8187 108.398 18.944 108.985 18.208C109.571 17.4613 110.291 16.8747 111.145 16.448C112.009 16.0213 113.001 15.808 114.121 15.808C115.198 15.808 116.131 16.0053 116.921 16.4C117.71 16.7947 118.398 17.3813 118.985 18.16V8.72H120.505ZM136.914 22.432C136.914 21.5787 136.791 20.816 136.546 20.144C136.311 19.4613 135.975 18.8853 135.538 18.416C135.1 17.9467 134.578 17.5893 133.97 17.344C133.372 17.088 132.711 16.96 131.986 16.96C131.164 16.96 130.428 17.088 129.778 17.344C129.127 17.6 128.562 17.968 128.082 18.448C127.612 18.928 127.234 19.504 126.946 20.176C126.658 20.848 126.466 21.6 126.37 22.432H136.914ZM126.29 23.408V23.712C126.29 24.9067 126.428 25.9573 126.706 26.864C126.983 27.7707 127.378 28.5333 127.89 29.152C128.402 29.76 129.02 30.2187 129.746 30.528C130.471 30.8373 131.282 30.992 132.178 30.992C132.978 30.992 133.671 30.9067 134.258 30.736C134.844 30.5547 135.335 30.3573 135.73 30.144C136.135 29.92 136.455 29.7227 136.69 29.552C136.924 29.3707 137.095 29.28 137.202 29.28C137.34 29.28 137.447 29.3333 137.522 29.44L137.938 29.952C137.682 30.272 137.34 30.5707 136.914 30.848C136.498 31.1253 136.028 31.3653 135.506 31.568C134.994 31.76 134.439 31.9147 133.842 32.032C133.255 32.1493 132.663 32.208 132.066 32.208C130.978 32.208 129.986 32.0213 129.09 31.648C128.194 31.264 127.426 30.7093 126.786 29.984C126.146 29.2587 125.65 28.3733 125.298 27.328C124.956 26.272 124.786 25.0667 124.786 23.712C124.786 22.5707 124.946 21.52 125.266 20.56C125.596 19.5893 126.066 18.7573 126.674 18.064C127.292 17.36 128.044 16.8107 128.93 16.416C129.826 16.0213 130.839 15.824 131.97 15.824C132.866 15.824 133.698 15.9787 134.466 16.288C135.234 16.5973 135.9 17.0507 136.466 17.648C137.031 18.2347 137.474 18.96 137.794 19.824C138.124 20.688 138.29 21.68 138.29 22.8C138.29 23.0347 138.258 23.1947 138.194 23.28C138.13 23.3653 138.023 23.408 137.874 23.408H126.29ZM143.889 18.864C144.625 17.9467 145.473 17.2107 146.433 16.656C147.404 16.1013 148.481 15.824 149.665 15.824C150.54 15.824 151.308 15.9627 151.969 16.24C152.641 16.5173 153.196 16.9173 153.633 17.44C154.071 17.9627 154.401 18.592 154.625 19.328C154.849 20.064 154.961 20.896 154.961 21.824V32H153.425V21.824C153.425 20.3307 153.084 19.1627 152.401 18.32C151.719 17.4667 150.679 17.04 149.281 17.04C148.247 17.04 147.276 17.3067 146.369 17.84C145.473 18.3627 144.673 19.0933 143.969 20.032V32H142.433V16.08H143.281C143.548 16.08 143.703 16.2133 143.745 16.48L143.889 18.864ZM168.779 18.048C168.694 18.1973 168.571 18.272 168.411 18.272C168.294 18.272 168.144 18.208 167.963 18.08C167.782 17.9413 167.536 17.792 167.227 17.632C166.928 17.4613 166.555 17.312 166.107 17.184C165.659 17.0453 165.115 16.976 164.475 16.976C163.899 16.976 163.371 17.0613 162.891 17.232C162.422 17.392 162.016 17.6107 161.675 17.888C161.344 18.1653 161.088 18.4907 160.907 18.864C160.726 19.2267 160.635 19.6107 160.635 20.016C160.635 20.5173 160.763 20.9333 161.019 21.264C161.275 21.5947 161.606 21.8773 162.011 22.112C162.427 22.3467 162.902 22.5493 163.435 22.72C163.968 22.8907 164.507 23.0613 165.051 23.232C165.606 23.4027 166.15 23.5947 166.683 23.808C167.216 24.0107 167.686 24.2667 168.091 24.576C168.507 24.8853 168.843 25.264 169.099 25.712C169.355 26.16 169.483 26.704 169.483 27.344C169.483 28.0373 169.36 28.6827 169.115 29.28C168.87 29.8773 168.507 30.3947 168.027 30.832C167.558 31.2693 166.976 31.616 166.283 31.872C165.59 32.128 164.795 32.256 163.899 32.256C162.779 32.256 161.814 32.08 161.003 31.728C160.192 31.3653 159.467 30.896 158.827 30.32L159.179 29.776C159.232 29.6907 159.291 29.6267 159.355 29.584C159.43 29.5413 159.526 29.52 159.643 29.52C159.782 29.52 159.947 29.6053 160.139 29.776C160.342 29.9467 160.608 30.1333 160.939 30.336C161.27 30.528 161.675 30.7093 162.155 30.88C162.646 31.0507 163.248 31.136 163.963 31.136C164.635 31.136 165.227 31.0453 165.739 30.864C166.251 30.672 166.678 30.416 167.019 30.096C167.36 29.776 167.616 29.4027 167.787 28.976C167.968 28.5387 168.059 28.08 168.059 27.6C168.059 27.0667 167.931 26.624 167.675 26.272C167.419 25.92 167.083 25.6213 166.667 25.376C166.251 25.1307 165.776 24.9227 165.243 24.752C164.72 24.5813 164.182 24.4107 163.627 24.24C163.072 24.0693 162.528 23.8827 161.995 23.68C161.472 23.4773 161.003 23.2213 160.587 22.912C160.171 22.6027 159.835 22.2293 159.579 21.792C159.323 21.344 159.195 20.7893 159.195 20.128C159.195 19.5627 159.318 19.0187 159.563 18.496C159.808 17.9733 160.155 17.5147 160.603 17.12C161.062 16.7253 161.616 16.4107 162.267 16.176C162.918 15.9413 163.648 15.824 164.459 15.824C165.43 15.824 166.288 15.9627 167.035 16.24C167.792 16.5173 168.48 16.944 169.099 17.52L168.779 18.048ZM182.533 24.304C181.018 24.3573 179.711 24.48 178.613 24.672C177.525 24.8533 176.623 25.104 175.909 25.424C175.205 25.744 174.682 26.128 174.341 26.576C173.999 27.0133 173.829 27.5147 173.829 28.08C173.829 28.6133 173.914 29.0773 174.085 29.472C174.266 29.856 174.501 30.176 174.789 30.432C175.087 30.6773 175.429 30.8587 175.813 30.976C176.197 31.0933 176.597 31.152 177.013 31.152C177.631 31.152 178.197 31.088 178.709 30.96C179.231 30.8213 179.711 30.6347 180.149 30.4C180.597 30.1547 181.013 29.8667 181.397 29.536C181.781 29.2053 182.159 28.848 182.533 28.464V24.304ZM173.173 18.336C174.005 17.504 174.879 16.8747 175.797 16.448C176.714 16.0213 177.754 15.808 178.917 15.808C179.77 15.808 180.517 15.9467 181.157 16.224C181.797 16.4907 182.325 16.88 182.741 17.392C183.167 17.8933 183.487 18.5067 183.701 19.232C183.914 19.9467 184.021 20.7467 184.021 21.632V32H183.413C183.093 32 182.895 31.8507 182.821 31.552L182.597 29.504C182.159 29.9307 181.722 30.3147 181.285 30.656C180.858 30.9973 180.41 31.2853 179.941 31.52C179.471 31.7547 178.965 31.936 178.421 32.064C177.877 32.192 177.279 32.256 176.629 32.256C176.085 32.256 175.557 32.176 175.045 32.016C174.533 31.856 174.074 31.6107 173.669 31.28C173.274 30.9493 172.954 30.528 172.709 30.016C172.474 29.4933 172.357 28.8693 172.357 28.144C172.357 27.472 172.549 26.848 172.933 26.272C173.317 25.696 173.919 25.1947 174.741 24.768C175.562 24.3413 176.613 24 177.893 23.744C179.183 23.488 180.73 23.3387 182.533 23.296V21.632C182.533 20.16 182.213 19.0293 181.573 18.24C180.943 17.44 180.005 17.04 178.757 17.04C177.989 17.04 177.333 17.1467 176.789 17.36C176.255 17.5733 175.802 17.808 175.429 18.064C175.055 18.32 174.751 18.5547 174.517 18.768C174.282 18.9813 174.085 19.088 173.925 19.088C173.807 19.088 173.711 19.0613 173.637 19.008C173.562 18.9547 173.498 18.8853 173.445 18.8L173.173 18.336ZM202.149 32H200.613V17.712H191.397V28.512C191.397 28.9493 191.451 29.328 191.557 29.648C191.675 29.9573 191.829 30.2133 192.021 30.416C192.224 30.6187 192.459 30.768 192.725 30.864C192.992 30.96 193.28 31.008 193.589 31.008C193.973 31.008 194.304 30.9547 194.581 30.848C194.859 30.7307 195.099 30.608 195.301 30.48C195.504 30.3413 195.669 30.2187 195.797 30.112C195.925 29.9947 196.027 29.936 196.101 29.936C196.187 29.936 196.272 29.9893 196.357 30.096L196.773 30.768C196.368 31.216 195.851 31.5787 195.221 31.856C194.603 32.1227 193.957 32.256 193.285 32.256C192.208 32.256 191.365 31.9573 190.757 31.36C190.16 30.7627 189.861 29.84 189.861 28.592V17.712H187.573C187.456 17.712 187.36 17.68 187.285 17.616C187.211 17.552 187.173 17.4613 187.173 17.344V16.752L189.893 16.56L190.277 10.864C190.299 10.768 190.341 10.6827 190.405 10.608C190.469 10.5333 190.56 10.496 190.677 10.496H191.397V16.576H202.149V32ZM202.853 10.4C202.853 10.592 202.811 10.7733 202.725 10.944C202.651 11.104 202.544 11.248 202.405 11.376C202.277 11.504 202.128 11.6053 201.957 11.68C201.787 11.7547 201.605 11.792 201.413 11.792C201.221 11.792 201.04 11.7547 200.869 11.68C200.699 11.6053 200.549 11.504 200.421 11.376C200.293 11.248 200.192 11.104 200.117 10.944C200.043 10.7733 200.005 10.592 200.005 10.4C200.005 10.208 200.043 10.0267 200.117 9.856C200.192 9.67467 200.293 9.52 200.421 9.392C200.549 9.264 200.699 9.16267 200.869 9.088C201.04 9.01333 201.221 8.976 201.413 8.976C201.605 8.976 201.787 9.01333 201.957 9.088C202.128 9.16267 202.277 9.264 202.405 9.392C202.544 9.52 202.651 9.67467 202.725 9.856C202.811 10.0267 202.853 10.208 202.853 10.4ZM213.862 15.824C215.004 15.824 216.022 16.0213 216.918 16.416C217.825 16.8 218.588 17.3493 219.206 18.064C219.825 18.7787 220.294 19.6427 220.614 20.656C220.945 21.6587 221.11 22.784 221.11 24.032C221.11 25.28 220.945 26.4053 220.614 27.408C220.294 28.4107 219.825 29.2693 219.206 29.984C218.588 30.6987 217.825 31.248 216.918 31.632C216.022 32.016 215.004 32.208 213.862 32.208C212.721 32.208 211.697 32.016 210.79 31.632C209.894 31.248 209.132 30.6987 208.502 29.984C207.884 29.2693 207.409 28.4107 207.078 27.408C206.758 26.4053 206.598 25.28 206.598 24.032C206.598 22.784 206.758 21.6587 207.078 20.656C207.409 19.6427 207.884 18.7787 208.502 18.064C209.132 17.3493 209.894 16.8 210.79 16.416C211.697 16.0213 212.721 15.824 213.862 15.824ZM213.862 31.008C214.812 31.008 215.638 30.848 216.342 30.528C217.057 30.1973 217.649 29.728 218.118 29.12C218.598 28.512 218.956 27.7813 219.19 26.928C219.425 26.064 219.542 25.0987 219.542 24.032C219.542 22.976 219.425 22.016 219.19 21.152C218.956 20.288 218.598 19.552 218.118 18.944C217.649 18.3253 217.057 17.8507 216.342 17.52C215.638 17.1893 214.812 17.024 213.862 17.024C212.913 17.024 212.081 17.1893 211.366 17.52C210.662 17.8507 210.07 18.3253 209.59 18.944C209.121 19.552 208.764 20.288 208.518 21.152C208.284 22.016 208.166 22.976 208.166 24.032C208.166 25.0987 208.284 26.064 208.518 26.928C208.764 27.7813 209.121 28.512 209.59 29.12C210.07 29.728 210.662 30.1973 211.366 30.528C212.081 30.848 212.913 31.008 213.862 31.008ZM226.858 18.864C227.594 17.9467 228.442 17.2107 229.402 16.656C230.373 16.1013 231.45 15.824 232.634 15.824C233.509 15.824 234.277 15.9627 234.938 16.24C235.61 16.5173 236.165 16.9173 236.602 17.44C237.039 17.9627 237.37 18.592 237.594 19.328C237.818 20.064 237.93 20.896 237.93 21.824V32H236.394V21.824C236.394 20.3307 236.053 19.1627 235.37 18.32C234.687 17.4667 233.647 17.04 232.25 17.04C231.215 17.04 230.245 17.3067 229.338 17.84C228.442 18.3627 227.642 19.0933 226.938 20.032V32H225.402V16.08H226.25C226.517 16.08 226.671 16.2133 226.714 16.48L226.858 18.864Z" fill="black"/>
</svg>
