<svg width="135" height="115" viewBox="0 0 135 115" fill="none" xmlns="http://www.w3.org/2000/svg">
<path d="M124.583 19.1667C124.583 8.59805 115.985 0 105.417 0C98.3379 0 92.1477 3.86029 88.8283 9.58333L35.7549 9.58333C32.4357 3.86029 26.2455 0 19.1667 0C8.59808 0 3.05176e-05 8.59805 3.05176e-05 19.1667C3.05176e-05 29.7353 8.59808 38.3333 19.1667 38.3333C26.2455 38.3333 32.4357 34.473 35.7551 28.75L88.8283 28.75C92.1477 34.473 98.3379 38.3333 105.417 38.3333C115.985 38.3333 124.583 29.7353 124.583 19.1667ZM9.58337 19.1667C9.58337 13.874 13.874 9.58333 19.1667 9.58333C24.4594 9.58333 28.75 13.874 28.75 19.1667C28.75 24.4594 24.4594 28.75 19.1667 28.75C13.874 28.75 9.58337 24.4594 9.58337 19.1667ZM95.8334 19.1667C95.8334 13.874 100.124 9.58333 105.417 9.58333C110.709 9.58333 115 13.874 115 19.1667C115 24.4594 110.709 28.75 105.417 28.75C100.124 28.75 95.8334 24.4594 95.8334 19.1667Z" fill="url(#paint0_linear)"/>
<path d="M35.9274 105.117H82.3601C92.5385 105.117 100.629 101.976 106.407 95.7796C112.581 89.1578 115.507 79.5137 115.123 67.0835H134.167L105.417 38.3335L76.6667 67.0835H95.8334C95.8334 75.0197 95.0422 79.8623 92.3882 82.7088C90.3823 84.86 87.0084 85.9507 82.3601 85.9507H35.5827C32.2234 80.3918 26.1225 76.6668 19.1671 76.6668C8.59843 76.6668 0.00038147 85.2649 0.00038147 95.8335C0.00038147 106.402 8.59843 115 19.1671 115C26.3689 115 32.6526 111.006 35.9274 105.117ZM9.58342 95.8335C9.58342 90.5408 13.8741 86.2502 19.1667 86.2502C24.4594 86.2502 28.7501 90.5408 28.7501 95.8335C28.7501 101.126 24.4594 105.417 19.1667 105.417C13.8741 105.417 9.58342 101.126 9.58342 95.8335Z" fill="url(#paint1_linear)"/>
<defs>
<linearGradient id="paint0_linear" x1="124.583" y1="19.1667" x2="3.05176e-05" y2="19.1667" gradientUnits="userSpaceOnUse">
<stop stop-color="#199DFF"/>
<stop offset="1" stop-color="#0280DC"/>
</linearGradient>
<linearGradient id="paint1_linear" x1="134.167" y1="76.6668" x2="0.00038147" y2="76.6668" gradientUnits="userSpaceOnUse">
<stop stop-color="#199DFF"/>
<stop offset="1" stop-color="#0280DC"/>
</linearGradient>
</defs>
</svg>
