<svg width="55" height="88" viewBox="0 0 55 88" fill="none" xmlns="http://www.w3.org/2000/svg">
<path d="M54.6875 9.49199C54.6875 4.69224 50.4102 0.813477 45.1172 0.813477H9.57031C4.27734 0.813477 0 4.69224 0 9.49199V79.2744C0 84.0741 4.27734 87.9529 9.57031 87.9529H45.1172C50.4102 87.9529 54.6875 84.0741 54.6875 79.2744V9.49199ZM3.51562 15.6909H51.1719V68.2934H3.51562V15.6909ZM45.1367 84.7649H9.55078C6.21094 84.7649 3.51562 82.2676 3.51562 79.2389V71.4814H51.1719V79.2389C51.1719 82.2676 48.4766 84.7649 45.1367 84.7649ZM51.1719 9.52742V12.5029H3.51562V9.52742C3.51562 6.49879 6.21094 4.0015 9.55078 4.0015H45.1367C48.4766 4.0015 51.1719 6.49879 51.1719 9.52742Z" fill="#199DFF"/>
<path d="M32.1094 76.6182H22.5781C21.6016 76.6182 20.8203 77.3266 20.8203 78.212C20.8203 79.0975 21.6016 79.8059 22.5781 79.8059H32.1094C33.0859 79.8059 33.8672 79.0975 33.8672 78.212C33.8672 77.3266 33.0859 76.6182 32.1094 76.6182Z" fill="#199DFF"/>
</svg>
