<svg width="394" height="252" viewBox="0 0 394 252" fill="none" xmlns="http://www.w3.org/2000/svg">
<rect x="214" y="208" width="76" height="44" fill="#D4D4D4"/>
<rect x="107" y="38" width="76" height="44" fill="#199DFF"/>
<rect y="38" width="76" height="44" fill="#D4D4D4"/>
<path d="M0 123H76V167H0V123Z" fill="#D4D4D4"/>
<rect x="318" y="208" width="76" height="44" fill="#D4D4D4"/>
<rect x="318" y="124" width="76" height="44" fill="#D4D4D4"/>
<rect x="214" y="38" width="76" height="44" fill="#D4D4D4"/>
<rect x="107" y="208" width="76" height="44" fill="#D4D4D4"/>
<rect x="107" y="124" width="76" height="44" fill="#D4D4D4"/>
<rect x="318" y="36" width="76" height="44" fill="#D4D4D4"/>
<rect y="208" width="76" height="44" fill="#199DFF"/>
<rect x="214" y="123" width="76" height="45" fill="#199DFF"/>
<path d="M125.863 15.324C125.863 16.596 125.651 17.776 125.227 18.864C124.811 19.944 124.219 20.88 123.451 21.672C122.683 22.464 121.759 23.084 120.679 23.532C119.599 23.972 118.399 24.192 117.079 24.192C115.767 24.192 114.571 23.972 113.491 23.532C112.411 23.084 111.483 22.464 110.707 21.672C109.939 20.88 109.343 19.944 108.919 18.864C108.495 17.776 108.283 16.596 108.283 15.324C108.283 14.052 108.495 12.876 108.919 11.796C109.343 10.708 109.939 9.768 110.707 8.976C111.483 8.184 112.411 7.568 113.491 7.128C114.571 6.68 115.767 6.456 117.079 6.456C117.959 6.456 118.787 6.56 119.563 6.768C120.339 6.968 121.051 7.256 121.699 7.632C122.347 8 122.927 8.452 123.439 8.988C123.959 9.516 124.399 10.108 124.759 10.764C125.119 11.42 125.391 12.132 125.575 12.9C125.767 13.668 125.863 14.476 125.863 15.324ZM122.563 15.324C122.563 14.372 122.435 13.52 122.179 12.768C121.923 12.008 121.559 11.364 121.087 10.836C120.615 10.308 120.039 9.904 119.359 9.624C118.687 9.344 117.927 9.204 117.079 9.204C116.231 9.204 115.467 9.344 114.787 9.624C114.115 9.904 113.539 10.308 113.059 10.836C112.587 11.364 112.223 12.008 111.967 12.768C111.711 13.52 111.583 14.372 111.583 15.324C111.583 16.276 111.711 17.132 111.967 17.892C112.223 18.644 112.587 19.284 113.059 19.812C113.539 20.332 114.115 20.732 114.787 21.012C115.467 21.292 116.231 21.432 117.079 21.432C117.927 21.432 118.687 21.292 119.359 21.012C120.039 20.732 120.615 20.332 121.087 19.812C121.559 19.284 121.923 18.644 122.179 17.892C122.435 17.132 122.563 16.276 122.563 15.324ZM131.006 20.808C131.342 21.216 131.706 21.504 132.098 21.672C132.498 21.84 132.918 21.924 133.358 21.924C133.814 21.924 134.222 21.844 134.582 21.684C134.95 21.516 135.262 21.26 135.518 20.916C135.774 20.564 135.97 20.12 136.106 19.584C136.242 19.04 136.31 18.392 136.31 17.64C136.31 16.288 136.086 15.312 135.638 14.712C135.19 14.104 134.546 13.8 133.706 13.8C133.138 13.8 132.642 13.932 132.218 14.196C131.794 14.452 131.39 14.816 131.006 15.288V20.808ZM131.006 13.2C131.502 12.68 132.05 12.268 132.65 11.964C133.258 11.652 133.95 11.496 134.726 11.496C135.438 11.496 136.078 11.636 136.646 11.916C137.222 12.196 137.71 12.6 138.11 13.128C138.518 13.648 138.83 14.28 139.046 15.024C139.262 15.768 139.37 16.604 139.37 17.532C139.37 18.532 139.246 19.44 138.998 20.256C138.75 21.072 138.394 21.772 137.93 22.356C137.474 22.932 136.922 23.38 136.274 23.7C135.626 24.02 134.906 24.18 134.114 24.18C133.73 24.18 133.382 24.14 133.07 24.06C132.758 23.988 132.47 23.884 132.206 23.748C131.942 23.612 131.698 23.448 131.474 23.256C131.258 23.056 131.05 22.836 130.85 22.596L130.718 23.424C130.67 23.632 130.586 23.78 130.466 23.868C130.354 23.956 130.198 24 129.998 24H128.042V6.168H131.006V13.2ZM144.731 11.688V24.42C144.731 24.956 144.659 25.46 144.515 25.932C144.379 26.404 144.155 26.816 143.843 27.168C143.539 27.528 143.135 27.808 142.631 28.008C142.135 28.216 141.527 28.32 140.807 28.32C140.527 28.32 140.267 28.3 140.027 28.26C139.787 28.228 139.539 28.172 139.283 28.092L139.391 26.496C139.415 26.336 139.479 26.232 139.583 26.184C139.687 26.144 139.887 26.124 140.183 26.124C140.479 26.124 140.727 26.092 140.927 26.028C141.135 25.972 141.299 25.876 141.419 25.74C141.539 25.612 141.623 25.44 141.671 25.224C141.727 25.008 141.755 24.74 141.755 24.42V11.688H144.731ZM145.139 8.1C145.139 8.356 145.087 8.596 144.983 8.82C144.879 9.044 144.739 9.24 144.563 9.408C144.395 9.576 144.191 9.712 143.951 9.816C143.719 9.912 143.471 9.96 143.207 9.96C142.951 9.96 142.711 9.912 142.487 9.816C142.263 9.712 142.067 9.576 141.899 9.408C141.731 9.24 141.595 9.044 141.491 8.82C141.395 8.596 141.347 8.356 141.347 8.1C141.347 7.836 141.395 7.588 141.491 7.356C141.595 7.124 141.731 6.924 141.899 6.756C142.067 6.588 142.263 6.456 142.487 6.36C142.711 6.256 142.951 6.204 143.207 6.204C143.471 6.204 143.719 6.256 143.951 6.36C144.191 6.456 144.395 6.588 144.563 6.756C144.739 6.924 144.879 7.124 144.983 7.356C145.087 7.588 145.139 7.836 145.139 8.1ZM155.685 16.428C155.685 16.044 155.629 15.684 155.517 15.348C155.413 15.004 155.253 14.704 155.037 14.448C154.821 14.192 154.545 13.992 154.209 13.848C153.881 13.696 153.497 13.62 153.057 13.62C152.201 13.62 151.525 13.864 151.029 14.352C150.541 14.84 150.229 15.532 150.093 16.428H155.685ZM150.033 18.216C150.081 18.848 150.193 19.396 150.369 19.86C150.545 20.316 150.777 20.696 151.065 21C151.353 21.296 151.693 21.52 152.085 21.672C152.485 21.816 152.925 21.888 153.405 21.888C153.885 21.888 154.297 21.832 154.641 21.72C154.993 21.608 155.297 21.484 155.553 21.348C155.817 21.212 156.045 21.088 156.237 20.976C156.437 20.864 156.629 20.808 156.813 20.808C157.061 20.808 157.245 20.9 157.365 21.084L158.217 22.164C157.889 22.548 157.521 22.872 157.113 23.136C156.705 23.392 156.277 23.6 155.829 23.76C155.389 23.912 154.937 24.02 154.473 24.084C154.017 24.148 153.573 24.18 153.141 24.18C152.285 24.18 151.489 24.04 150.753 23.76C150.017 23.472 149.377 23.052 148.833 22.5C148.289 21.94 147.861 21.252 147.549 20.436C147.237 19.612 147.081 18.66 147.081 17.58C147.081 16.74 147.217 15.952 147.489 15.216C147.761 14.472 148.149 13.828 148.653 13.284C149.165 12.732 149.785 12.296 150.513 11.976C151.249 11.656 152.077 11.496 152.997 11.496C153.773 11.496 154.489 11.62 155.145 11.868C155.801 12.116 156.365 12.48 156.837 12.96C157.309 13.432 157.677 14.016 157.941 14.712C158.213 15.4 158.349 16.188 158.349 17.076C158.349 17.524 158.301 17.828 158.205 17.988C158.109 18.14 157.925 18.216 157.653 18.216H150.033ZM169.393 14.292C169.305 14.404 169.217 14.492 169.129 14.556C169.049 14.62 168.929 14.652 168.769 14.652C168.617 14.652 168.469 14.608 168.325 14.52C168.181 14.424 168.009 14.32 167.809 14.208C167.609 14.088 167.369 13.984 167.089 13.896C166.817 13.8 166.477 13.752 166.069 13.752C165.549 13.752 165.093 13.848 164.701 14.04C164.309 14.224 163.981 14.492 163.717 14.844C163.461 15.196 163.269 15.624 163.141 16.128C163.013 16.624 162.949 17.188 162.949 17.82C162.949 18.476 163.017 19.06 163.153 19.572C163.297 20.084 163.501 20.516 163.765 20.868C164.029 21.212 164.349 21.476 164.725 21.66C165.101 21.836 165.525 21.924 165.997 21.924C166.469 21.924 166.849 21.868 167.137 21.756C167.433 21.636 167.681 21.508 167.881 21.372C168.081 21.228 168.253 21.1 168.397 20.988C168.549 20.868 168.717 20.808 168.901 20.808C169.141 20.808 169.321 20.9 169.441 21.084L170.293 22.164C169.965 22.548 169.609 22.872 169.225 23.136C168.841 23.392 168.441 23.6 168.025 23.76C167.617 23.912 167.193 24.02 166.753 24.084C166.321 24.148 165.889 24.18 165.457 24.18C164.697 24.18 163.981 24.04 163.309 23.76C162.637 23.472 162.049 23.056 161.545 22.512C161.041 21.968 160.641 21.304 160.345 20.52C160.057 19.728 159.913 18.828 159.913 17.82C159.913 16.916 160.041 16.08 160.297 15.312C160.561 14.536 160.945 13.868 161.449 13.308C161.953 12.74 162.577 12.296 163.321 11.976C164.065 11.656 164.921 11.496 165.889 11.496C166.809 11.496 167.613 11.644 168.301 11.94C168.997 12.236 169.621 12.66 170.173 13.212L169.393 14.292ZM176.256 24.192C175.184 24.192 174.36 23.892 173.784 23.292C173.216 22.684 172.932 21.848 172.932 20.784V13.908H171.672C171.512 13.908 171.376 13.856 171.264 13.752C171.152 13.648 171.096 13.492 171.096 13.284V12.108L173.076 11.784L173.7 8.424C173.74 8.264 173.816 8.14 173.928 8.052C174.04 7.964 174.184 7.92 174.36 7.92H175.896V11.796H179.184V13.908H175.896V20.58C175.896 20.964 175.988 21.264 176.172 21.48C176.364 21.696 176.624 21.804 176.952 21.804C177.136 21.804 177.288 21.784 177.408 21.744C177.536 21.696 177.644 21.648 177.732 21.6C177.828 21.552 177.912 21.508 177.984 21.468C178.056 21.42 178.128 21.396 178.2 21.396C178.288 21.396 178.36 21.42 178.416 21.468C178.472 21.508 178.532 21.572 178.596 21.66L179.484 23.1C179.052 23.46 178.556 23.732 177.996 23.916C177.436 24.1 176.856 24.192 176.256 24.192Z" fill="#199DFF"/>
</svg>
