<svg width="88" height="89" viewBox="0 0 88 89" fill="none" xmlns="http://www.w3.org/2000/svg">
<path d="M80.3947 23.9702C80.5086 23.2933 80.5637 22.6462 80.5637 22.014C80.5637 14.3196 73.7668 8.05893 65.4156 8.05893C64.8057 8.05893 64.1959 8.09234 63.5897 8.16114C61.3596 3.23176 56.484 0 51.0981 0C48.3719 0 45.7248 0.834875 43.4268 2.41922C41.0863 1.13814 38.4467 0.466763 35.7279 0.466763C30.002 0.466763 24.8326 3.41403 22.2535 8.06249C22.1984 8.05873 22.1434 8.05873 22.0883 8.05873C13.7373 8.05873 6.94395 14.3194 6.94395 22.0138C6.94395 23.1035 7.1 24.1968 7.41973 25.3274C2.81074 27.9919 0 32.741 0 38.0144C0 46.1793 6.79336 52.8229 15.1443 52.8229C15.3133 52.8229 15.4768 52.8043 15.6826 52.7709L22.0607 52.7612V54.4705C22.0607 55.4464 22.4477 56.3085 23.0172 57.0105C22.4477 57.7126 22.0607 58.5747 22.0607 59.5505V65.895C22.0607 68.1338 23.8629 69.9597 26.0764 69.9597H42.694V79.3238H38.3016C37.4713 79.3238 36.7971 80.008 36.7971 80.8485V82.4587H17.3082C16.4779 82.4587 15.8037 83.1429 15.8037 83.9835C15.8037 84.8242 16.4779 85.5084 17.3082 85.5084H36.7971V87.1224C36.7971 87.9628 37.4713 88.6472 38.3016 88.6472H50.0916C50.9219 88.6472 51.5979 87.963 51.5979 87.1224V85.5084H71.085C71.9152 85.5084 72.5914 84.8242 72.5914 83.9835C72.5914 83.1429 71.9154 82.4587 71.085 82.4587H51.5979V80.8485C51.5979 80.008 50.9219 79.3238 50.0916 79.3238H45.7029V69.9597H61.6391C63.8508 69.9597 65.6547 68.1338 65.6547 65.895V59.5505C65.6547 58.5747 65.2674 57.7126 64.6977 57.0105C65.2674 56.3085 65.6547 55.4464 65.6547 54.4705V52.7053L73.0322 52.693C76.8568 52.693 80.259 51.3766 82.941 48.7065C85.9721 45.6849 87.7137 41.3375 87.7137 36.78C87.7133 31.1905 85.002 26.4879 80.3947 23.9702ZM48.585 85.5977H39.8059V82.3735H48.585V85.5977ZM25.0693 43.0444V36.7037C25.0693 36.1422 25.5213 35.6847 26.076 35.6847H61.6387C62.1934 35.6847 62.6416 36.1422 62.6416 36.7037V43.0444C62.6416 43.6059 62.1934 44.0633 61.6387 44.0633H26.076C25.5213 44.0633 25.0693 43.6059 25.0693 43.0444ZM25.0693 54.4707V48.1282C25.0693 47.5667 25.5213 47.1093 26.076 47.1093H61.6387C62.1934 47.1093 62.6416 47.5667 62.6416 48.1282V54.4707C62.6416 55.0322 62.1934 55.4859 61.6387 55.4859H26.076C25.5213 55.4859 25.0693 55.0322 25.0693 54.4707ZM62.6418 65.895C62.6418 66.4565 62.1936 66.9102 61.6389 66.9102H26.076C25.5213 66.9102 25.0693 66.4565 25.0693 65.895V59.5505C25.0693 58.9891 25.5213 58.5354 26.076 58.5354H61.6387C62.1934 58.5354 62.6416 58.9891 62.6416 59.5505V65.895H62.6418ZM80.8281 46.5346C78.7377 48.6171 76.085 49.8331 73.0502 49.6435L65.6543 49.6558V48.128C65.6543 47.1512 65.2666 46.288 64.6965 45.5862C65.2666 44.8842 65.6543 44.0212 65.6543 43.0444V36.7037C65.6543 34.463 63.8504 32.639 61.6387 32.639H26.076C23.8623 32.639 22.0604 34.4632 22.0604 36.7037V43.0444C22.0604 44.0212 22.4477 44.8844 23.0176 45.5862C22.4477 46.2882 22.0604 47.1512 22.0604 48.128V49.7123L15.6197 49.7254L15.1439 49.7738C8.45352 49.7738 3.00859 44.5004 3.00859 38.0148C3.00859 33.4982 5.64473 29.4539 9.89004 27.4625C10.6084 27.126 10.9463 26.2819 10.6598 25.5324C10.184 24.2847 9.95254 23.1337 9.95254 22.0144C9.95254 15.999 15.3975 11.105 22.0879 11.105C22.2404 11.105 22.3873 11.1274 22.5344 11.146L23.0248 11.1962C23.6695 11.2539 24.2336 10.8856 24.4943 10.3129C26.3717 6.18298 30.7807 3.51288 35.7277 3.51288C38.2316 3.51288 40.649 4.21016 42.7193 5.5286C43.2594 5.87082 43.9482 5.83365 44.4553 5.43193C44.6262 5.29433 44.8006 5.16425 44.9807 5.03594C44.9807 5.03594 44.9824 5.03594 44.9824 5.03416C46.8121 3.7345 48.9266 3.04651 51.0979 3.04651C55.6279 3.04651 59.6951 5.98251 61.2197 10.3504C61.4623 11.057 62.1934 11.4811 62.9135 11.3397C63.7365 11.1853 64.5815 11.1054 65.4154 11.1054C72.1096 11.1054 77.5508 15.9994 77.5508 22.0148C77.5508 22.7623 77.4441 23.5544 77.2201 24.4395C77.04 25.1629 77.4002 25.9141 78.0762 26.2115C82.2242 28.0505 84.7004 32.0018 84.7004 36.7806C84.7006 40.471 83.2529 44.1173 80.8281 46.5346Z" fill="#199DFF"/>
<path d="M31.2843 42.6155C32.7802 42.6155 33.9929 41.3879 33.9929 39.8737C33.9929 38.3594 32.7802 37.1318 31.2843 37.1318C29.7884 37.1318 28.5757 38.3594 28.5757 39.8737C28.5757 41.3879 29.7884 42.6155 31.2843 42.6155Z" fill="#199DFF"/>
<path d="M39.0951 42.6155C40.591 42.6155 41.8036 41.3879 41.8036 39.8737C41.8036 38.3594 40.591 37.1318 39.0951 37.1318C37.5991 37.1318 36.3865 38.3594 36.3865 39.8737C36.3865 41.3879 37.5991 42.6155 39.0951 42.6155Z" fill="#199DFF"/>
<path d="M46.9059 42.6155C48.4018 42.6155 49.6144 41.3879 49.6144 39.8737C49.6144 38.3594 48.4018 37.1318 46.9059 37.1318C45.4099 37.1318 44.1973 38.3594 44.1973 39.8737C44.1973 41.3879 45.4099 42.6155 46.9059 42.6155Z" fill="#199DFF"/>
<path d="M31.0127 48.3945C29.5166 48.3945 28.3037 49.622 28.3037 51.1362C28.3037 52.6503 29.5166 53.8774 31.0127 53.8774C32.5084 53.8774 33.7213 52.6501 33.7213 51.1362C33.7215 49.622 32.5086 48.3945 31.0127 48.3945Z" fill="#199DFF"/>
<path d="M38.8233 48.3945C37.3272 48.3945 36.1147 49.622 36.1147 51.1362C36.1147 52.6503 37.3274 53.8774 38.8233 53.8774C40.3193 53.8774 41.532 52.6501 41.532 51.1362C41.5321 49.622 40.3194 48.3945 38.8233 48.3945Z" fill="#199DFF"/>
<path d="M46.6341 48.3945C45.138 48.3945 43.9255 49.622 43.9255 51.1362C43.9255 52.6503 45.1382 53.8774 46.6341 53.8774C48.13 53.8774 49.3427 52.6501 49.3427 51.1362C49.3429 49.622 48.1302 48.3945 46.6341 48.3945Z" fill="#199DFF"/>
<path d="M31.0127 59.5894C29.5166 59.5894 28.3037 60.817 28.3037 62.3314C28.3037 63.8453 29.5166 65.073 31.0127 65.073C32.5084 65.073 33.7213 63.8453 33.7213 62.3314C33.7215 60.817 32.5086 59.5894 31.0127 59.5894Z" fill="#199DFF"/>
<path d="M38.8233 59.5894C37.3272 59.5894 36.1147 60.817 36.1147 62.3314C36.1147 63.8453 37.3274 65.073 38.8233 65.073C40.3193 65.073 41.532 63.8453 41.532 62.3314C41.5321 60.817 40.3194 59.5894 38.8233 59.5894Z" fill="#199DFF"/>
<path d="M46.6341 59.5894C45.138 59.5894 43.9255 60.817 43.9255 62.3314C43.9255 63.8453 45.1382 65.073 46.6341 65.073C48.13 65.073 49.3427 63.8453 49.3427 62.3314C49.3429 60.817 48.1302 59.5894 46.6341 59.5894Z" fill="#199DFF"/>
</svg>
