<svg width="146" height="115" viewBox="0 0 146 115" fill="none" xmlns="http://www.w3.org/2000/svg">
<path d="M61.1281 0H8.18753C6.01607 0 3.93353 0.861244 2.39807 2.39427C0.862625 3.92731 0 6.00655 0 8.17458V106.825C0 108.993 0.862625 111.073 2.39807 112.606C3.93353 114.139 6.01607 115 8.18753 115H61.1281C63.2996 115 65.3821 114.139 66.9175 112.606C68.453 111.073 69.3156 108.993 69.3156 106.825V101.921L107.519 101.921C109.69 101.921 111.773 101.059 113.308 99.5264C114.844 97.9934 115.706 95.9141 115.706 93.7461V88.8413H137.812C139.984 88.8413 142.066 87.9801 143.602 86.4471C145.137 84.914 146 82.8348 146 80.6668V34.3332C146 32.1652 145.137 30.086 143.602 28.5529C142.066 27.0199 139.984 26.1587 137.812 26.1587H115.706V21.2539C115.706 19.0859 114.844 17.0066 113.308 15.4736C111.773 13.9406 109.69 13.0793 107.519 13.0793L69.3156 13.0793V8.17458C69.3156 6.00655 68.453 3.92731 66.9175 2.39427C65.3821 0.861244 63.2996 0 61.1281 0ZM62.7656 106.809C62.7656 107.243 62.5931 107.659 62.286 107.965C61.9789 108.272 61.5624 108.444 61.1281 108.444H8.18753C7.75323 108.444 7.33673 108.272 7.02963 107.965C6.72255 107.659 6.55002 107.243 6.55002 106.809V8.17458C6.55002 7.74097 6.72255 7.32513 7.02963 7.01852C7.33673 6.71191 7.75323 6.53967 8.18753 6.53967H61.1281C61.5624 6.53967 61.9789 6.71191 62.286 7.01852C62.5931 7.32513 62.7656 7.74097 62.7656 8.17458L62.7656 106.809ZM137.812 32.6983C138.247 32.6983 138.663 32.8706 138.97 33.1772C139.277 33.4838 139.45 33.8996 139.45 34.3332V80.6668C139.45 81.1004 139.277 81.5162 138.97 81.8228C138.663 82.1294 138.247 82.3017 137.812 82.3017H115.706L115.706 32.6983H137.812ZM107.519 19.619C107.953 19.619 108.369 19.7912 108.677 20.0978C108.984 20.4045 109.156 20.8203 109.156 21.2539L109.156 93.7461C109.156 94.1797 108.984 94.5955 108.677 94.9022C108.369 95.2088 107.953 95.381 107.519 95.381L69.3156 95.381L69.3156 19.619L107.519 19.619Z" fill="url(#paint0_linear)"/>
<defs>
<linearGradient id="paint0_linear" x1="73" y1="115" x2="73" y2="0" gradientUnits="userSpaceOnUse">
<stop stop-color="#017EDB"/>
<stop offset="1" stop-color="#199DFF"/>
</linearGradient>
</defs>
</svg>
