<svg width="71" height="71" viewBox="0 0 71 71" fill="none" xmlns="http://www.w3.org/2000/svg">
<path d="M35.3587 70.8356C26.5689 70.823 18.0979 67.5417 11.5931 61.6299C5.08839 55.718 1.01485 47.5983 0.164689 38.8496C0.142214 38.6111 0.188807 38.3712 0.298914 38.1584C0.40902 37.9456 0.577995 37.769 0.785689 37.6496C1.59981 37.1883 2.35613 36.6317 3.03869 35.9916C6.09269 33.0916 8.99969 31.7016 11.6437 31.8586C12.7345 31.9565 13.7922 32.2846 14.747 32.8211C15.7018 33.3577 16.5319 34.0907 17.1827 34.9716C17.564 35.4553 17.9118 35.9645 18.2237 36.4956C19.2067 38.0846 19.7457 38.7606 20.7387 38.5646C22.1327 38.2926 22.3307 37.3646 22.2527 34.5096C22.0608 33.0016 22.2856 31.4699 22.9027 30.0806C23.4575 29.1946 24.2411 28.4747 25.1709 27.9968C26.1008 27.519 27.1423 27.3009 28.1857 27.3656H28.2597C31.6457 27.3936 35.3217 29.3946 36.8107 32.0206C38.5887 35.1566 36.8777 37.6206 35.6287 39.4136C34.1967 41.4716 33.6287 42.4526 35.2427 44.1346C35.7307 44.572 36.2732 44.9444 36.8567 45.2426C38.2877 46.0706 40.0717 47.1006 40.2137 49.3996C40.3297 51.2996 38.9847 52.5136 37.9037 53.4866C37.3917 53.9466 36.6927 54.5776 36.6947 54.9086C36.6947 55.4806 37.9027 56.4486 38.6997 57.0896C39.4018 57.5986 40.0342 58.1974 40.5807 58.8706C42.6467 61.7636 42.5757 63.4936 41.6117 66.5166C41.2827 67.5526 40.9617 68.6166 40.6457 69.6956C40.5768 69.9309 40.4402 70.1407 40.253 70.2989C40.0658 70.4572 39.8361 70.5569 39.5927 70.5856C38.1875 70.7517 36.7737 70.8352 35.3587 70.8356V70.8356ZM2.73769 39.3836C3.76892 47.8958 8.0819 55.6694 14.7585 61.0494C21.435 66.4293 29.9479 68.9909 38.4847 68.1886C38.7287 67.3676 38.9767 66.5546 39.2297 65.7586C40.0177 63.2896 40.0537 62.4326 38.5457 60.3226C38.1225 59.8455 37.6491 59.4153 37.1337 59.0396C35.7607 57.9396 34.2037 56.6846 34.1947 54.9246C34.1857 53.4726 35.2717 52.4936 36.2297 51.6306C37.1547 50.7976 37.7577 50.2026 37.7177 49.5546C37.6617 48.6406 36.8787 48.1436 35.6057 47.4086C34.8133 46.9992 34.0833 46.4789 33.4377 45.8636C30.3447 42.6346 32.2127 39.9486 33.5757 37.9876C34.8927 36.0936 35.5917 34.9396 34.6357 33.2546C33.914 32.2229 32.9573 31.3775 31.8445 30.7884C30.7317 30.1993 29.4947 29.8834 28.2357 29.8666C27.6208 29.8042 27.0004 29.9091 26.4403 30.1703C25.8801 30.4316 25.401 30.8394 25.0537 31.3506C24.7224 32.3456 24.6198 33.4025 24.7537 34.4426C24.8187 36.7746 24.9147 40.2996 21.2187 41.0186C18.4117 41.5756 17.0247 39.3066 16.0997 37.8126C15.8458 37.3797 15.565 36.9632 15.2587 36.5656C14.8247 35.9514 14.265 35.4366 13.6167 35.0554C12.9684 34.6742 12.2464 34.4353 11.4987 34.3546C9.55869 34.2416 7.29869 35.3996 4.76569 37.8046C4.14 38.3926 3.46109 38.9212 2.73769 39.3836V39.3836Z" fill="url(#paint0_linear)"/>
<path d="M39.4467 70.5951C39.2527 70.5951 39.0613 70.5499 38.8877 70.4631C38.7142 70.3763 38.5632 70.2503 38.4467 70.0951C38.3303 69.9398 38.2516 69.7596 38.2169 69.5687C38.1822 69.3778 38.1924 69.1814 38.2467 68.9951C38.5677 67.9001 38.8947 66.8141 39.2297 65.7611C40.0177 63.2921 40.0537 62.4351 38.5457 60.3251C38.1229 59.8473 37.6494 59.4168 37.1337 59.0411C35.7607 57.9411 34.2037 56.6861 34.1947 54.9261C34.1857 53.4741 35.2717 52.4951 36.2297 51.6321C37.1547 50.7991 37.7577 50.2041 37.7177 49.5561C37.6617 48.6421 36.8787 48.1451 35.6057 47.4101C34.8134 47.0006 34.0834 46.4804 33.4377 45.8651C30.3447 42.6361 32.2127 39.9501 33.5757 37.9891C34.8927 36.0951 35.5917 34.9411 34.6357 33.2561C33.9141 32.2243 32.9573 31.379 31.8445 30.7899C30.7317 30.2008 29.4948 29.8848 28.2357 29.8681C27.6208 29.8056 27.0005 29.9105 26.4403 30.1718C25.8802 30.433 25.4011 30.8408 25.0537 31.3521C24.7224 32.3471 24.6199 33.404 24.7537 34.4441C24.8187 36.7761 24.9147 40.3011 21.2187 41.0201C18.4117 41.5771 17.0247 39.3081 16.0997 37.8141C15.8459 37.3811 15.565 36.9646 15.2587 36.5671C14.8249 35.9527 14.2652 35.4377 13.6169 35.0563C12.9686 34.6749 12.2465 34.4359 11.4987 34.3551C9.55875 34.2421 7.29875 35.4001 4.76575 37.8051C3.93903 38.5807 3.02292 39.2551 2.03675 39.8141C1.85555 39.9185 1.65103 39.9757 1.44195 39.9806C1.23288 39.9854 1.02594 39.9376 0.840115 39.8417C0.654292 39.7457 0.495537 39.6047 0.378409 39.4314C0.261282 39.2582 0.189534 39.0583 0.169746 38.8501C-0.342357 33.6449 0.307714 28.3909 2.07302 23.4674C3.83833 18.544 6.67484 14.074 10.3777 10.3801V10.3801C14.5744 6.16963 19.7664 3.08723 25.4723 1.41879C31.1781 -0.249652 37.2128 -0.450087 43.0167 0.836073C43.2695 0.891715 43.4987 1.02443 43.6728 1.21591C43.8469 1.40739 43.9573 1.64819 43.9887 1.90507C44.1597 3.0585 44.1745 4.2297 44.0327 5.38707C43.2727 10.7521 39.3327 11.5431 35.8547 12.2401C34.6307 12.449 33.4264 12.7608 32.2547 13.1721C28.7947 14.5151 27.4927 15.7621 27.4297 16.4221C27.3877 16.8611 27.9647 17.5021 28.9747 18.1371C30.7957 19.2831 32.8987 19.2111 35.1257 19.1371C38.5367 19.0231 42.4077 18.8921 45.2337 23.4591C45.8595 24.6354 46.301 25.9008 46.5427 27.2111C47.0427 29.2731 47.5197 31.2201 48.9767 31.9261C50.2427 32.5381 54.9067 32.2151 56.0887 31.5821C57.4012 30.8224 58.364 29.579 58.7707 28.1181C59.1897 27.0511 59.6227 25.9471 60.8287 25.6021C62.0007 25.2701 63.3718 25.8241 65.7288 27.5801C66.2338 27.9561 66.7288 28.3381 67.2178 28.7151C68.1968 29.4701 69.1227 30.1831 70.0707 30.8071C70.2256 30.9087 70.356 31.0436 70.4523 31.2018C70.5487 31.3601 70.6086 31.5378 70.6277 31.7221C71.6048 40.9787 68.8963 50.2477 63.0887 57.5217C57.2811 64.7957 48.842 69.4893 39.5987 70.5861C39.5483 70.5922 39.4976 70.5952 39.4467 70.5951ZM28.1857 27.3661H28.2597C31.6457 27.3941 35.3217 29.3951 36.8107 32.0211C38.5887 35.1571 36.8777 37.6211 35.6287 39.4141C34.1967 41.4721 33.6287 42.4531 35.2427 44.1351C35.7307 44.5724 36.2732 44.9449 36.8567 45.2431C38.2877 46.0711 40.0717 47.1011 40.2137 49.4001C40.3297 51.3001 38.9847 52.5141 37.9037 53.4871C37.3917 53.9471 36.6927 54.5781 36.6947 54.9091C36.6947 55.4811 37.9027 56.4491 38.6997 57.0901C39.4018 57.5991 40.0342 58.1978 40.5807 58.8711C42.6467 61.7641 42.5757 63.4941 41.6117 66.5171C41.4757 66.9471 41.3397 67.3831 41.2047 67.8171C49.2976 66.3755 56.5575 61.9561 61.5548 55.4292C66.552 48.9022 68.9244 40.7408 68.2048 32.5521C67.3508 31.9631 66.5137 31.3171 65.6987 30.6891C65.2217 30.3201 64.7388 29.9471 64.2438 29.5801C63.4669 28.877 62.5531 28.3421 61.5597 28.0091C61.3778 28.3341 61.2245 28.6744 61.1017 29.0261C60.485 31.0443 59.1139 32.747 57.2737 33.7801C55.4067 34.7801 49.9527 35.1691 47.8907 34.1701C45.3737 32.9501 44.7067 30.2131 44.1177 27.7971C43.9254 26.7457 43.5868 25.7265 43.1117 24.7691C41.0477 21.4341 38.4727 21.5201 35.2117 21.6301C32.8207 21.7101 30.1117 21.8011 27.6457 20.2471C25.7097 19.0301 24.8007 17.6601 24.9457 16.1771C25.1367 14.1821 27.2337 12.4341 31.3547 10.8351C32.6585 10.3692 34.0002 10.0172 35.3647 9.78307C38.9927 9.05507 41.0707 8.47507 41.5647 5.03007C41.6475 4.38771 41.6609 3.73831 41.6047 3.09307C36.329 2.07187 30.8831 2.36305 25.7464 3.94098C20.6096 5.51891 15.9394 8.33522 12.1467 12.1421V12.1421C8.96063 15.3181 6.46156 19.1153 4.80476 23.2978C3.14796 27.4803 2.36882 31.9588 2.51575 36.4551C2.69775 36.3051 2.87175 36.1551 3.03875 35.9921C6.09275 33.0921 8.99975 31.7021 11.6437 31.8591C12.7346 31.9569 13.7923 32.285 14.7471 32.8216C15.7018 33.3582 16.532 34.0911 17.1827 34.9721C17.5641 35.4558 17.9119 35.965 18.2237 36.4961C19.2067 38.0851 19.7457 38.7611 20.7387 38.5651C22.1327 38.2931 22.3307 37.3651 22.2527 34.5101C22.0608 33.0021 22.2856 31.4703 22.9027 30.0811C23.4575 29.195 24.2412 28.4751 25.171 27.9973C26.1008 27.5194 27.1423 27.3014 28.1857 27.3661V27.3661Z" fill="url(#paint1_linear)"/>
<path d="M51.6128 34.7574C50.3452 34.8167 49.0788 34.6187 47.8898 34.1754C45.3728 32.9554 44.7058 30.2184 44.1168 27.8024C43.9244 26.7511 43.5858 25.7319 43.1108 24.7744C41.0468 21.4394 38.4718 21.5254 35.2108 21.6354C32.8198 21.7154 30.1108 21.8064 27.6448 20.2524C25.7088 19.0354 24.7998 17.6654 24.9448 16.1824C25.1358 14.1874 27.2328 12.4394 31.3538 10.8404C32.6575 10.3745 33.9992 10.0225 35.3638 9.78844C38.9918 9.06044 41.0698 8.48044 41.5638 5.03544C41.6708 4.09598 41.654 3.14653 41.5138 2.21144C41.4894 2.01357 41.5127 1.81274 41.5817 1.62571C41.6508 1.43868 41.7636 1.27088 41.9107 1.13631C42.0578 1.00174 42.2349 0.904307 42.4273 0.852142C42.6197 0.799977 42.8219 0.794594 43.0168 0.836441C50.2816 2.42968 56.8599 6.27108 61.8175 11.8152C66.7752 17.3593 69.8603 24.3244 70.6348 31.7214C70.6593 31.9568 70.6165 32.1942 70.5114 32.4062C70.4063 32.6182 70.2433 32.796 70.0411 32.9189C69.839 33.0419 69.6061 33.1049 69.3696 33.1008C69.133 33.0966 68.9025 33.0254 68.7048 32.8954C67.6778 32.2204 66.6718 31.4444 65.6978 30.6954C65.2208 30.3264 64.7378 29.9534 64.2428 29.5864C63.466 28.8834 62.5522 28.3485 61.5588 28.0154C61.3768 28.3405 61.2236 28.6808 61.1008 29.0324C60.4841 31.0507 59.113 32.7534 57.2728 33.7864C55.4713 34.4901 53.5457 34.8204 51.6128 34.7574V34.7574ZM36.7888 19.0994C39.7478 19.0994 42.8618 19.6184 45.2368 23.4584C45.8626 24.6347 46.304 25.9002 46.5458 27.2104C47.0458 29.2724 47.5228 31.2194 48.9798 31.9254C50.2458 32.5374 54.9098 32.2144 56.0918 31.5814C57.4042 30.8218 58.367 29.5783 58.7738 28.1174C59.1928 27.0504 59.6258 25.9464 60.8318 25.6014C62.0038 25.2694 63.3748 25.8234 65.7318 27.5794C66.2368 27.9554 66.7318 28.3374 67.2208 28.7144L67.7108 29.0914C66.536 23.0808 63.706 17.5176 59.5397 13.0287C55.3734 8.53973 50.0363 5.30346 44.1298 3.68444C44.1424 4.25288 44.1089 4.8214 44.0298 5.38444C43.2698 10.7494 39.3298 11.5404 35.8518 12.2374C34.6277 12.4464 33.4234 12.7581 32.2518 13.1694C28.7918 14.5124 27.4898 15.7594 27.4268 16.4194C27.3848 16.8584 27.9618 17.4994 28.9718 18.1344C30.7928 19.2804 32.8958 19.2084 35.1228 19.1344C35.6718 19.1184 36.2278 19.0994 36.7888 19.0994Z" fill="url(#paint2_linear)"/>
<defs>
<linearGradient id="paint0_linear" x1="21.2104" y1="27.3545" x2="21.2104" y2="70.8356" gradientUnits="userSpaceOnUse">
<stop stop-color="#74CDFF"/>
<stop offset="1" stop-color="#199DFF"/>
</linearGradient>
<linearGradient id="paint1_linear" x1="35.4117" y1="0" x2="35.4117" y2="70.5951" gradientUnits="userSpaceOnUse">
<stop stop-color="#74CDFF"/>
<stop offset="1" stop-color="#199DFF"/>
</linearGradient>
<linearGradient id="paint2_linear" x1="47.7857" y1="0.808594" x2="47.7857" y2="34.7677" gradientUnits="userSpaceOnUse">
<stop stop-color="#74CDFF"/>
<stop offset="1" stop-color="#199DFF"/>
</linearGradient>
</defs>
</svg>
