<svg width="77" height="76" viewBox="0 0 77 76" fill="none" xmlns="http://www.w3.org/2000/svg">
<path d="M70.9257 49.4953C71.406 47.2209 71.6623 44.8901 71.6623 42.548C71.6623 28.1133 62.1714 15.135 48.4968 10.7152C48.5024 10.5782 48.5169 10.4436 48.5169 10.3058C48.5169 4.62296 43.8939 0 38.2112 0C32.5284 0 27.9054 4.62377 27.9054 10.3066C27.9054 10.4444 27.9207 10.579 27.9256 10.716C14.2461 15.1367 4.75997 28.1029 4.75997 42.5488C4.75997 44.903 5.01788 47.2451 5.50306 49.53C2.23411 51.2596 0 54.6921 0 58.6413C0 64.3241 4.62296 68.9471 10.3058 68.9471C12.319 68.9471 14.1937 68.3579 15.783 67.3553C21.9438 72.9301 29.8784 76 38.2112 76C46.5657 76 54.5035 72.9212 60.6699 67.3271C62.2681 68.3474 64.1605 68.9471 66.1939 68.9471C71.8767 68.9471 76.4997 64.3241 76.4997 58.6413C76.4997 54.6647 74.2325 51.2136 70.9257 49.4953ZM38.2112 2.41867C42.5601 2.41867 46.099 5.95762 46.099 10.3066C46.099 14.6555 42.5601 18.1944 38.2112 18.1944C33.8622 18.1944 30.3233 14.6555 30.3233 10.3066C30.3233 5.95762 33.8622 2.41867 38.2112 2.41867ZM2.41787 58.6405C2.41787 54.2916 5.95682 50.7526 10.3058 50.7526C14.6547 50.7526 18.1936 54.2916 18.1936 58.6405C18.1936 62.9895 14.6547 66.5284 10.3058 66.5284C5.95682 66.5284 2.41787 62.9903 2.41787 58.6405ZM17.6875 65.8167C19.4936 63.959 20.6115 61.4299 20.6115 58.6405C20.6115 52.9577 15.9885 48.3348 10.3058 48.3348C9.43774 48.3348 8.59793 48.454 7.79198 48.658C7.39303 46.6552 7.17784 44.6072 7.17784 42.548C7.17784 29.2723 15.8112 17.3401 28.3084 13.1306C29.5407 17.4425 33.5092 20.6115 38.2112 20.6115C42.9131 20.6115 46.8808 17.4425 48.1131 13.1314C60.607 17.3409 69.2445 29.2836 69.2445 42.548C69.2445 44.6 69.0309 46.6423 68.6344 48.6386C67.8502 48.4468 67.0362 48.3348 66.1939 48.3348C60.5111 48.3348 55.8882 52.9577 55.8882 58.6405C55.8882 61.4114 56.9931 63.926 58.7783 65.7797C53.0972 70.8161 45.8403 73.5813 38.2112 73.5813C30.6094 73.5813 23.3622 70.8274 17.6875 65.8167ZM66.1939 66.5284C61.845 66.5284 58.306 62.9895 58.306 58.6405C58.306 54.2916 61.845 50.7526 66.1939 50.7526C70.5429 50.7526 74.0818 54.2916 74.0818 58.6405C74.0818 62.9895 70.5429 66.5284 66.1939 66.5284Z" fill="url(#paint0_linear)"/>
<defs>
<linearGradient id="paint0_linear" x1="5.34344e-08" y1="76" x2="76" y2="2.89577e-06" gradientUnits="userSpaceOnUse">
<stop stop-color="#199DFF"/>
<stop offset="1" stop-color="#74CDFF"/>
</linearGradient>
</defs>
</svg>
