<svg width="509" height="180" viewBox="0 0 509 180" fill="none" xmlns="http://www.w3.org/2000/svg">
<rect width="509" height="180" fill="white"/>
<path d="M202.78 99.08C202.993 99.08 203.18 99.1667 203.34 99.34L204.88 101C203.707 102.36 202.28 103.42 200.6 104.18C198.933 104.94 196.913 105.32 194.54 105.32C192.487 105.32 190.62 104.967 188.94 104.26C187.26 103.54 185.827 102.54 184.64 101.26C183.453 99.9667 182.533 98.42 181.88 96.62C181.227 94.82 180.9 92.84 180.9 90.68C180.9 88.52 181.24 86.54 181.92 84.74C182.6 82.94 183.553 81.3933 184.78 80.1C186.02 78.8067 187.5 77.8067 189.22 77.1C190.94 76.38 192.84 76.02 194.92 76.02C196.96 76.02 198.76 76.3467 200.32 77C201.88 77.6533 203.253 78.54 204.44 79.66L203.16 81.44C203.08 81.5733 202.973 81.6867 202.84 81.78C202.72 81.86 202.553 81.9 202.34 81.9C202.1 81.9 201.807 81.7733 201.46 81.52C201.113 81.2533 200.66 80.96 200.1 80.64C199.54 80.32 198.84 80.0333 198 79.78C197.16 79.5133 196.127 79.38 194.9 79.38C193.42 79.38 192.067 79.64 190.84 80.16C189.613 80.6667 188.553 81.4067 187.66 82.38C186.78 83.3533 186.093 84.54 185.6 85.94C185.107 87.34 184.86 88.92 184.86 90.68C184.86 92.4667 185.113 94.06 185.62 95.46C186.14 96.86 186.84 98.0467 187.72 99.02C188.613 99.98 189.66 100.713 190.86 101.22C192.073 101.727 193.38 101.98 194.78 101.98C195.633 101.98 196.4 101.933 197.08 101.84C197.773 101.733 198.407 101.573 198.98 101.36C199.567 101.147 200.107 100.88 200.6 100.56C201.107 100.227 201.607 99.8333 202.1 99.38C202.327 99.18 202.553 99.08 202.78 99.08ZM216.688 84.42C218.168 84.42 219.501 84.6667 220.688 85.16C221.875 85.6533 222.888 86.3533 223.728 87.26C224.568 88.1667 225.208 89.2667 225.648 90.56C226.101 91.84 226.328 93.2733 226.328 94.86C226.328 96.46 226.101 97.9 225.648 99.18C225.208 100.46 224.568 101.553 223.728 102.46C222.888 103.367 221.875 104.067 220.688 104.56C219.501 105.04 218.168 105.28 216.688 105.28C215.195 105.28 213.848 105.04 212.648 104.56C211.461 104.067 210.448 103.367 209.608 102.46C208.768 101.553 208.121 100.46 207.668 99.18C207.228 97.9 207.008 96.46 207.008 94.86C207.008 93.2733 207.228 91.84 207.668 90.56C208.121 89.2667 208.768 88.1667 209.608 87.26C210.448 86.3533 211.461 85.6533 212.648 85.16C213.848 84.6667 215.195 84.42 216.688 84.42ZM216.688 102.5C218.688 102.5 220.181 101.833 221.168 100.5C222.155 99.1533 222.648 97.28 222.648 94.88C222.648 92.4667 222.155 90.5867 221.168 89.24C220.181 87.8933 218.688 87.22 216.688 87.22C215.675 87.22 214.788 87.3933 214.028 87.74C213.281 88.0867 212.655 88.5867 212.148 89.24C211.655 89.8933 211.281 90.7 211.028 91.66C210.788 92.6067 210.668 93.68 210.668 94.88C210.668 97.28 211.161 99.1533 212.148 100.5C213.148 101.833 214.661 102.5 216.688 102.5ZM234.203 87.68C234.643 87.1867 235.11 86.74 235.603 86.34C236.097 85.94 236.617 85.6 237.163 85.32C237.723 85.0267 238.31 84.8067 238.923 84.66C239.55 84.5 240.223 84.42 240.943 84.42C242.05 84.42 243.023 84.6067 243.863 84.98C244.717 85.34 245.423 85.86 245.983 86.54C246.557 87.2067 246.99 88.0133 247.283 88.96C247.577 89.9067 247.723 90.9533 247.723 92.1V105H244.143V92.1C244.143 90.5667 243.79 89.38 243.083 88.54C242.39 87.6867 241.33 87.26 239.903 87.26C238.85 87.26 237.863 87.5133 236.943 88.02C236.037 88.5267 235.197 89.2133 234.423 90.08V105H230.843V84.74H232.983C233.49 84.74 233.803 84.9867 233.923 85.48L234.203 87.68ZM266.348 89.56C265.681 88.6667 264.961 88.0467 264.188 87.7C263.415 87.34 262.548 87.16 261.588 87.16C259.708 87.16 258.261 87.8333 257.248 89.18C256.235 90.5267 255.728 92.4467 255.728 94.94C255.728 96.26 255.841 97.3933 256.068 98.34C256.295 99.2733 256.628 100.047 257.068 100.66C257.508 101.26 258.048 101.7 258.688 101.98C259.328 102.26 260.055 102.4 260.868 102.4C262.041 102.4 263.061 102.133 263.928 101.6C264.808 101.067 265.615 100.313 266.348 99.34V89.56ZM269.908 75.54V105H267.788C267.281 105 266.961 104.753 266.828 104.26L266.508 101.8C265.641 102.84 264.655 103.68 263.548 104.32C262.441 104.96 261.161 105.28 259.708 105.28C258.548 105.28 257.495 105.06 256.548 104.62C255.601 104.167 254.795 103.507 254.128 102.64C253.461 101.773 252.948 100.693 252.588 99.4C252.228 98.1067 252.048 96.62 252.048 94.94C252.048 93.4467 252.248 92.06 252.648 90.78C253.048 89.4867 253.621 88.3667 254.368 87.42C255.115 86.4733 256.028 85.7333 257.108 85.2C258.201 84.6533 259.428 84.38 260.788 84.38C262.028 84.38 263.088 84.5933 263.968 85.02C264.861 85.4333 265.655 86.0133 266.348 86.76V75.54H269.908ZM289.091 92.66C289.091 91.8333 288.971 91.08 288.731 90.4C288.504 89.7067 288.164 89.1133 287.711 88.62C287.271 88.1133 286.731 87.7267 286.091 87.46C285.451 87.18 284.724 87.04 283.911 87.04C282.204 87.04 280.851 87.54 279.851 88.54C278.864 89.5267 278.251 90.9 278.011 92.66H289.091ZM291.971 102.16C291.531 102.693 291.004 103.16 290.391 103.56C289.778 103.947 289.118 104.267 288.411 104.52C287.718 104.773 286.998 104.96 286.251 105.08C285.504 105.213 284.764 105.28 284.031 105.28C282.631 105.28 281.338 105.047 280.151 104.58C278.978 104.1 277.958 103.407 277.091 102.5C276.238 101.58 275.571 100.447 275.091 99.1C274.611 97.7533 274.371 96.2067 274.371 94.46C274.371 93.0467 274.584 91.7267 275.011 90.5C275.451 89.2733 276.078 88.2133 276.891 87.32C277.704 86.4133 278.698 85.7067 279.871 85.2C281.044 84.68 282.364 84.42 283.831 84.42C285.044 84.42 286.164 84.6267 287.191 85.04C288.231 85.44 289.124 86.0267 289.871 86.8C290.631 87.56 291.224 88.5067 291.651 89.64C292.078 90.76 292.291 92.04 292.291 93.48C292.291 94.04 292.231 94.4133 292.111 94.6C291.991 94.7867 291.764 94.88 291.431 94.88H277.891C277.931 96.16 278.104 97.2733 278.411 98.22C278.731 99.1667 279.171 99.96 279.731 100.6C280.291 101.227 280.958 101.7 281.731 102.02C282.504 102.327 283.371 102.48 284.331 102.48C285.224 102.48 285.991 102.38 286.631 102.18C287.284 101.967 287.844 101.74 288.311 101.5C288.778 101.26 289.164 101.04 289.471 100.84C289.791 100.627 290.064 100.52 290.291 100.52C290.584 100.52 290.811 100.633 290.971 100.86L291.971 102.16ZM300.024 87.68C300.464 87.1867 300.93 86.74 301.424 86.34C301.917 85.94 302.437 85.6 302.984 85.32C303.544 85.0267 304.13 84.8067 304.744 84.66C305.37 84.5 306.044 84.42 306.764 84.42C307.87 84.42 308.844 84.6067 309.684 84.98C310.537 85.34 311.244 85.86 311.804 86.54C312.377 87.2067 312.81 88.0133 313.104 88.96C313.397 89.9067 313.544 90.9533 313.544 92.1V105H309.964V92.1C309.964 90.5667 309.61 89.38 308.904 88.54C308.21 87.6867 307.15 87.26 305.724 87.26C304.67 87.26 303.684 87.5133 302.764 88.02C301.857 88.5267 301.017 89.2133 300.244 90.08V105H296.664V84.74H298.804C299.31 84.74 299.624 84.9867 299.744 85.48L300.024 87.68ZM330.768 88.08C330.608 88.3733 330.362 88.52 330.028 88.52C329.828 88.52 329.602 88.4467 329.348 88.3C329.095 88.1533 328.782 87.9933 328.408 87.82C328.048 87.6333 327.615 87.4667 327.108 87.32C326.602 87.16 326.002 87.08 325.308 87.08C324.708 87.08 324.168 87.16 323.688 87.32C323.208 87.4667 322.795 87.6733 322.448 87.94C322.115 88.2067 321.855 88.52 321.668 88.88C321.495 89.2267 321.408 89.6067 321.408 90.02C321.408 90.54 321.555 90.9733 321.848 91.32C322.155 91.6667 322.555 91.9667 323.048 92.22C323.542 92.4733 324.102 92.7 324.728 92.9C325.355 93.0867 325.995 93.2933 326.648 93.52C327.315 93.7333 327.962 93.9733 328.588 94.24C329.215 94.5067 329.775 94.84 330.268 95.24C330.762 95.64 331.155 96.1333 331.448 96.72C331.755 97.2933 331.908 97.9867 331.908 98.8C331.908 99.7333 331.742 100.6 331.408 101.4C331.075 102.187 330.582 102.873 329.928 103.46C329.275 104.033 328.475 104.487 327.528 104.82C326.582 105.153 325.488 105.32 324.248 105.32C322.835 105.32 321.555 105.093 320.408 104.64C319.262 104.173 318.288 103.58 317.488 102.86L318.328 101.5C318.435 101.327 318.562 101.193 318.708 101.1C318.855 101.007 319.042 100.96 319.268 100.96C319.508 100.96 319.762 101.053 320.028 101.24C320.295 101.427 320.615 101.633 320.988 101.86C321.375 102.087 321.842 102.293 322.388 102.48C322.935 102.667 323.615 102.76 324.428 102.76C325.122 102.76 325.728 102.673 326.248 102.5C326.768 102.313 327.202 102.067 327.548 101.76C327.895 101.453 328.148 101.1 328.308 100.7C328.482 100.3 328.568 99.8733 328.568 99.42C328.568 98.86 328.415 98.4 328.108 98.04C327.815 97.6667 327.422 97.3533 326.928 97.1C326.435 96.8333 325.868 96.6067 325.228 96.42C324.602 96.22 323.955 96.0133 323.288 95.8C322.635 95.5867 321.988 95.3467 321.348 95.08C320.722 94.8 320.162 94.4533 319.668 94.04C319.175 93.6267 318.775 93.12 318.468 92.52C318.175 91.9067 318.028 91.1667 318.028 90.3C318.028 89.5267 318.188 88.7867 318.508 88.08C318.828 87.36 319.295 86.7333 319.908 86.2C320.522 85.6533 321.275 85.22 322.168 84.9C323.062 84.58 324.082 84.42 325.228 84.42C326.562 84.42 327.755 84.6333 328.808 85.06C329.875 85.4733 330.795 86.0467 331.568 86.78L330.768 88.08ZM347.253 95.88C345.613 95.9333 344.213 96.0667 343.053 96.28C341.906 96.48 340.966 96.7467 340.233 97.08C339.513 97.4133 338.986 97.8067 338.653 98.26C338.333 98.7133 338.173 99.22 338.173 99.78C338.173 100.313 338.26 100.773 338.433 101.16C338.606 101.547 338.84 101.867 339.133 102.12C339.44 102.36 339.793 102.54 340.193 102.66C340.606 102.767 341.046 102.82 341.513 102.82C342.14 102.82 342.713 102.76 343.233 102.64C343.753 102.507 344.24 102.32 344.693 102.08C345.16 101.84 345.6 101.553 346.013 101.22C346.44 100.887 346.853 100.507 347.253 100.08V95.88ZM335.753 87.6C336.873 86.52 338.08 85.7133 339.373 85.18C340.666 84.6467 342.1 84.38 343.673 84.38C344.806 84.38 345.813 84.5667 346.693 84.94C347.573 85.3133 348.313 85.8333 348.913 86.5C349.513 87.1667 349.966 87.9733 350.273 88.92C350.58 89.8667 350.733 90.9067 350.733 92.04V105H349.153C348.806 105 348.54 104.947 348.353 104.84C348.166 104.72 348.02 104.493 347.913 104.16L347.513 102.24C346.98 102.733 346.46 103.173 345.953 103.56C345.446 103.933 344.913 104.253 344.353 104.52C343.793 104.773 343.193 104.967 342.553 105.1C341.926 105.247 341.226 105.32 340.453 105.32C339.666 105.32 338.926 105.213 338.233 105C337.54 104.773 336.933 104.44 336.413 104C335.906 103.56 335.5 103.007 335.193 102.34C334.9 101.66 334.753 100.86 334.753 99.94C334.753 99.14 334.973 98.3733 335.413 97.64C335.853 96.8933 336.566 96.2333 337.553 95.66C338.54 95.0867 339.826 94.62 341.413 94.26C343 93.8867 344.946 93.6733 347.253 93.62V92.04C347.253 90.4667 346.913 89.28 346.233 88.48C345.553 87.6667 344.56 87.26 343.253 87.26C342.373 87.26 341.633 87.3733 341.033 87.6C340.446 87.8133 339.933 88.06 339.493 88.34C339.066 88.6067 338.693 88.8533 338.373 89.08C338.066 89.2933 337.76 89.4 337.453 89.4C337.213 89.4 337.006 89.34 336.833 89.22C336.66 89.0867 336.513 88.9267 336.393 88.74L335.753 87.6ZM374.683 105H371.123V87.72H360.683V99.88C360.683 100.733 360.889 101.367 361.303 101.78C361.716 102.193 362.249 102.4 362.903 102.4C363.276 102.4 363.596 102.353 363.863 102.26C364.143 102.153 364.383 102.04 364.583 101.92C364.783 101.8 364.949 101.693 365.083 101.6C365.229 101.493 365.356 101.44 365.463 101.44C365.649 101.44 365.816 101.553 365.963 101.78L367.003 103.48C366.389 104.053 365.649 104.507 364.783 104.84C363.916 105.16 363.023 105.32 362.103 105.32C360.503 105.32 359.269 104.873 358.403 103.98C357.549 103.087 357.123 101.8 357.123 100.12V87.72H354.683C354.469 87.72 354.289 87.66 354.143 87.54C353.996 87.4067 353.923 87.2067 353.923 86.94V85.52L357.243 85.08L358.062 78.84C358.103 78.64 358.189 78.48 358.323 78.36C358.469 78.2267 358.656 78.16 358.883 78.16H360.683V85.14H374.683V105ZM375.562 78.24C375.562 78.5867 375.489 78.9133 375.343 79.22C375.209 79.5133 375.023 79.7733 374.783 80C374.556 80.2267 374.289 80.4067 373.983 80.54C373.676 80.6733 373.349 80.74 373.003 80.74C372.656 80.74 372.329 80.6733 372.023 80.54C371.729 80.4067 371.469 80.2267 371.243 80C371.016 79.7733 370.836 79.5133 370.703 79.22C370.569 78.9133 370.503 78.5867 370.503 78.24C370.503 77.8933 370.569 77.5667 370.703 77.26C370.836 76.94 371.016 76.6667 371.243 76.44C371.469 76.2 371.729 76.0133 372.023 75.88C372.329 75.7467 372.656 75.68 373.003 75.68C373.349 75.68 373.676 75.7467 373.983 75.88C374.289 76.0133 374.556 76.2 374.783 76.44C375.023 76.6667 375.209 76.94 375.343 77.26C375.489 77.5667 375.562 77.8933 375.562 78.24ZM389.071 84.42C390.551 84.42 391.884 84.6667 393.071 85.16C394.258 85.6533 395.271 86.3533 396.111 87.26C396.951 88.1667 397.591 89.2667 398.031 90.56C398.484 91.84 398.711 93.2733 398.711 94.86C398.711 96.46 398.484 97.9 398.031 99.18C397.591 100.46 396.951 101.553 396.111 102.46C395.271 103.367 394.258 104.067 393.071 104.56C391.884 105.04 390.551 105.28 389.071 105.28C387.578 105.28 386.231 105.04 385.031 104.56C383.844 104.067 382.831 103.367 381.991 102.46C381.151 101.553 380.504 100.46 380.051 99.18C379.611 97.9 379.391 96.46 379.391 94.86C379.391 93.2733 379.611 91.84 380.051 90.56C380.504 89.2667 381.151 88.1667 381.991 87.26C382.831 86.3533 383.844 85.6533 385.031 85.16C386.231 84.6667 387.578 84.42 389.071 84.42ZM389.071 102.5C391.071 102.5 392.564 101.833 393.551 100.5C394.538 99.1533 395.031 97.28 395.031 94.88C395.031 92.4667 394.538 90.5867 393.551 89.24C392.564 87.8933 391.071 87.22 389.071 87.22C388.058 87.22 387.171 87.3933 386.411 87.74C385.664 88.0867 385.038 88.5867 384.531 89.24C384.038 89.8933 383.664 90.7 383.411 91.66C383.171 92.6067 383.051 93.68 383.051 94.88C383.051 97.28 383.544 99.1533 384.531 100.5C385.531 101.833 387.044 102.5 389.071 102.5ZM406.586 87.68C407.026 87.1867 407.493 86.74 407.986 86.34C408.48 85.94 409 85.6 409.546 85.32C410.106 85.0267 410.693 84.8067 411.306 84.66C411.933 84.5 412.606 84.42 413.326 84.42C414.433 84.42 415.406 84.6067 416.246 84.98C417.1 85.34 417.806 85.86 418.366 86.54C418.94 87.2067 419.373 88.0133 419.666 88.96C419.96 89.9067 420.106 90.9533 420.106 92.1V105H416.526V92.1C416.526 90.5667 416.173 89.38 415.466 88.54C414.773 87.6867 413.713 87.26 412.286 87.26C411.233 87.26 410.246 87.5133 409.326 88.02C408.42 88.5267 407.58 89.2133 406.806 90.08V105H403.226V84.74H405.366C405.873 84.74 406.186 84.9867 406.306 85.48L406.586 87.68Z" fill="black"/>
<circle cx="138" cy="79" r="3" fill="#0083E4"/>
<circle cx="149" cy="79" r="3" fill="#70C1FF"/>
<circle cx="138" cy="90" r="3" fill="#0083E4"/>
<circle cx="149" cy="90" r="3" fill="#70C1FF"/>
<circle cx="138" cy="101" r="3" fill="#0083E4"/>
<circle cx="149" cy="101" r="3" fill="#70C1FF"/>
<circle cx="138" cy="68" r="3" fill="#0083E4"/>
<circle cx="149" cy="68" r="3" fill="#70C1FF"/>
<circle cx="138" cy="57" r="3" fill="#70C1FF"/>
<circle cx="149" cy="57" r="3" fill="#70C1FF"/>
<circle cx="138" cy="112" r="3" fill="#0083E4"/>
<circle cx="149" cy="112" r="3" fill="#70C1FF"/>
<circle cx="138" cy="123" r="3" fill="#70C1FF"/>
<circle cx="149" cy="123" r="3" fill="#70C1FF"/>
<circle cx="83" cy="79" r="3" fill="#70C1FF"/>
<circle cx="94" cy="79" r="3" fill="#0083E4"/>
<circle cx="83" cy="90" r="3" fill="#70C1FF"/>
<circle cx="94" cy="90" r="3" fill="#0083E4"/>
<circle cx="83" cy="101" r="3" fill="#70C1FF"/>
<circle cx="94" cy="101" r="3" fill="#0083E4"/>
<circle cx="83" cy="68" r="3" fill="#70C1FF"/>
<circle cx="94" cy="68" r="3" fill="#0083E4"/>
<circle cx="83" cy="57" r="3" fill="#70C1FF"/>
<circle cx="94" cy="57" r="3" fill="#70C1FF"/>
<circle cx="83" cy="112" r="3" fill="#70C1FF"/>
<circle cx="94" cy="112" r="3" fill="#0083E4"/>
<circle cx="83" cy="123" r="3" fill="#70C1FF"/>
<circle cx="94" cy="123" r="3" fill="#70C1FF"/>
<circle cx="105" cy="112" r="3" fill="#0083E4"/>
<circle cx="105" cy="123" r="3" fill="#70C1FF"/>
<circle cx="116" cy="112" r="3" fill="#0083E4"/>
<circle cx="116" cy="123" r="3" fill="#70C1FF"/>
<circle cx="127" cy="112" r="3" fill="#0083E4"/>
<circle cx="127" cy="123" r="3" fill="#70C1FF"/>
<circle cx="105" cy="57" r="3" fill="#70C1FF"/>
<circle cx="105" cy="68" r="3" fill="#0083E4"/>
<circle cx="116" cy="57" r="3" fill="#70C1FF"/>
<circle cx="116" cy="68" r="3" fill="#0083E4"/>
<circle cx="127" cy="57" r="3" fill="#70C1FF"/>
<circle cx="127" cy="68" r="3" fill="#0083E4"/>
<circle cx="116" cy="90" r="14" fill="#0083E4"/>
</svg>
