<svg width="234" height="291" viewBox="0 0 234 291" fill="none" xmlns="http://www.w3.org/2000/svg">
<path d="M191.631 63.0597L136.94 8.36786C131.582 3.00995 124.314 -2.50268e-05 116.737 1.56066e-10H42.8571C31.4907 1.56078e-10 20.5898 4.51529 12.5526 12.5526C4.51529 20.5898 0 31.4907 0 42.8571V214.286C0 225.652 4.51529 236.553 12.5526 244.59C20.5898 252.628 31.4907 257.143 42.8571 257.143H157.143C168.509 257.143 179.41 252.628 187.447 244.59C195.485 236.553 200 225.652 200 214.286V83.2633C200 79.5111 199.261 75.7956 197.825 72.3291C196.389 68.8625 194.285 65.7128 191.631 63.0597V63.0597ZM128.571 20.2017L179.796 71.4286H142.857C139.07 71.4242 135.439 69.9177 132.76 67.2396C130.082 64.5614 128.576 60.9303 128.571 57.1429V20.2017ZM185.714 214.286C185.706 221.861 182.693 229.123 177.336 234.479C171.98 239.835 164.718 242.848 157.143 242.857H42.8571C35.2822 242.848 28.02 239.835 22.6637 234.479C17.3074 229.123 14.2944 221.861 14.2857 214.286V42.8571C14.2943 35.2822 17.3072 28.0199 22.6635 22.6635C28.0199 17.3072 35.2822 14.2943 42.8571 14.2857H114.286V57.1429C114.286 64.7205 117.296 71.9877 122.654 77.3459C128.012 82.7041 135.28 85.7143 142.857 85.7143H185.714V214.286ZM150 128.571H50C48.1056 128.571 46.2888 127.819 44.9492 126.479C43.6097 125.14 42.8571 123.323 42.8571 121.429C42.8571 119.534 43.6097 117.717 44.9492 116.378C46.2888 115.038 48.1056 114.286 50 114.286H150C151.894 114.286 153.711 115.038 155.051 116.378C156.39 117.717 157.143 119.534 157.143 121.429C157.143 123.323 156.39 125.14 155.051 126.479C153.711 127.819 151.894 128.571 150 128.571ZM150 171.429H50C48.1056 171.429 46.2888 170.676 44.9492 169.336C43.6097 167.997 42.8571 166.18 42.8571 164.286C42.8571 162.391 43.6097 160.574 44.9492 159.235C46.2888 157.895 48.1056 157.143 50 157.143H150C151.894 157.143 153.711 157.895 155.051 159.235C156.39 160.574 157.143 162.391 157.143 164.286C157.143 166.18 156.39 167.997 155.051 169.336C153.711 170.676 151.894 171.429 150 171.429ZM150 214.286H50C48.1056 214.286 46.2888 213.533 44.9492 212.194C43.6097 210.854 42.8571 209.037 42.8571 207.143C42.8571 205.248 43.6097 203.432 44.9492 202.092C46.2888 200.753 48.1056 200 50 200H150C151.894 200 153.711 200.753 155.051 202.092C156.39 203.432 157.143 205.248 157.143 207.143C157.143 209.037 156.39 210.854 155.051 212.194C153.711 213.533 151.894 214.286 150 214.286Z" fill="white"/>
<circle cx="174" cy="223" r="60" fill="black"/>
<path d="M197.344 231.752L194.176 237.152L181.72 229.952C180.856 229.424 180.088 228.896 179.416 228.368C178.744 227.84 178.144 227.168 177.616 226.352C178.384 227.936 178.768 229.688 178.768 231.608V245.864H172.432V231.68C172.432 230.72 172.48 229.832 172.576 229.016C172.72 228.2 172.984 227.408 173.368 226.64C172.84 227.312 172.264 227.912 171.64 228.44C171.016 228.968 170.296 229.472 169.48 229.952L157.096 237.08L153.928 231.68L166.312 224.48C168.136 223.376 169.96 222.8 171.784 222.752C170.824 222.656 169.888 222.488 168.976 222.248C168.112 221.96 167.224 221.528 166.312 220.952L153.856 213.68L157.024 208.28L169.48 215.48C170.344 216.008 171.112 216.56 171.784 217.136C172.456 217.712 173.056 218.408 173.584 219.224C172.816 217.544 172.432 215.744 172.432 213.824V199.568H178.768V213.752C178.768 214.712 178.696 215.624 178.552 216.488C178.456 217.304 178.216 218.096 177.832 218.864C178.36 218.192 178.936 217.592 179.56 217.064C180.184 216.536 180.904 216.008 181.72 215.48L194.104 208.352L197.272 213.752L184.888 220.952C184.072 221.48 183.256 221.888 182.44 222.176C181.624 222.464 180.76 222.656 179.848 222.752C180.76 222.848 181.624 223.04 182.44 223.328C183.256 223.568 184.072 223.952 184.888 224.48L197.344 231.752Z" fill="white"/>
</svg>
