<svg width="234" height="283" viewBox="0 0 234 283" fill="none" xmlns="http://www.w3.org/2000/svg">
<path d="M191.631 63.0597L136.94 8.36786C131.582 3.00995 124.314 -2.50268e-05 116.737 1.56066e-10H42.8571C31.4907 1.56078e-10 20.5898 4.51529 12.5526 12.5526C4.51529 20.5898 0 31.4907 0 42.8571V214.286C0 225.652 4.51529 236.553 12.5526 244.59C20.5898 252.628 31.4907 257.143 42.8571 257.143H157.143C168.509 257.143 179.41 252.628 187.447 244.59C195.485 236.553 200 225.652 200 214.286V83.2633C200 79.5111 199.261 75.7956 197.825 72.3291C196.389 68.8625 194.285 65.7128 191.631 63.0597V63.0597ZM128.571 20.2017L179.796 71.4286H142.857C139.07 71.4242 135.439 69.9177 132.76 67.2396C130.082 64.5614 128.576 60.9303 128.571 57.1429V20.2017ZM185.714 214.286C185.706 221.861 182.693 229.123 177.336 234.479C171.98 239.835 164.718 242.848 157.143 242.857H42.8571C35.2822 242.848 28.02 239.835 22.6637 234.479C17.3074 229.123 14.2944 221.861 14.2857 214.286V42.8571C14.2943 35.2822 17.3072 28.0199 22.6635 22.6635C28.0199 17.3072 35.2822 14.2943 42.8571 14.2857H114.286V57.1429C114.286 64.7205 117.296 71.9877 122.654 77.3459C128.012 82.7041 135.28 85.7143 142.857 85.7143H185.714V214.286ZM150 128.571H50C48.1056 128.571 46.2888 127.819 44.9492 126.479C43.6097 125.14 42.8571 123.323 42.8571 121.429C42.8571 119.534 43.6097 117.717 44.9492 116.378C46.2888 115.038 48.1056 114.286 50 114.286H150C151.894 114.286 153.711 115.038 155.051 116.378C156.39 117.717 157.143 119.534 157.143 121.429C157.143 123.323 156.39 125.14 155.051 126.479C153.711 127.819 151.894 128.571 150 128.571ZM150 171.429H50C48.1056 171.429 46.2888 170.676 44.9492 169.336C43.6097 167.997 42.8571 166.18 42.8571 164.286C42.8571 162.391 43.6097 160.574 44.9492 159.235C46.2888 157.895 48.1056 157.143 50 157.143H150C151.894 157.143 153.711 157.895 155.051 159.235C156.39 160.574 157.143 162.391 157.143 164.286C157.143 166.18 156.39 167.997 155.051 169.336C153.711 170.676 151.894 171.429 150 171.429ZM150 214.286H50C48.1056 214.286 46.2888 213.533 44.9492 212.194C43.6097 210.854 42.8571 209.037 42.8571 207.143C42.8571 205.248 43.6097 203.432 44.9492 202.092C46.2888 200.753 48.1056 200 50 200H150C151.894 200 153.711 200.753 155.051 202.092C156.39 203.432 157.143 205.248 157.143 207.143C157.143 209.037 156.39 210.854 155.051 212.194C153.711 213.533 151.894 214.286 150 214.286Z" fill="white"/>
<circle cx="174" cy="223" r="60" fill="black"/>
<path d="M174.952 239.072C176.723 239.072 178.248 238.869 179.528 238.464C180.808 238.059 181.853 237.493 182.664 236.768C183.496 236.021 184.104 235.147 184.488 234.144C184.872 233.12 185.064 232 185.064 230.784C185.064 228.416 184.221 226.549 182.536 225.184C180.851 223.797 178.323 223.104 174.952 223.104H165.032V239.072H174.952ZM165.032 203.04V218.688H173.224C174.973 218.688 176.488 218.496 177.768 218.112C179.069 217.728 180.136 217.195 180.968 216.512C181.821 215.829 182.451 215.008 182.856 214.048C183.261 213.067 183.464 212 183.464 210.848C183.464 208.139 182.653 206.165 181.032 204.928C179.411 203.669 176.893 203.04 173.48 203.04H165.032ZM173.48 198.144C176.296 198.144 178.717 198.421 180.744 198.976C182.792 199.531 184.467 200.32 185.768 201.344C187.091 202.368 188.061 203.627 188.68 205.12C189.299 206.592 189.608 208.256 189.608 210.112C189.608 211.243 189.427 212.331 189.064 213.376C188.723 214.4 188.2 215.36 187.496 216.256C186.792 217.152 185.896 217.963 184.808 218.688C183.741 219.392 182.483 219.968 181.032 220.416C184.403 221.056 186.931 222.261 188.616 224.032C190.323 225.781 191.176 228.085 191.176 230.944C191.176 232.885 190.813 234.656 190.088 236.256C189.384 237.856 188.339 239.232 186.952 240.384C185.587 241.536 183.901 242.432 181.896 243.072C179.891 243.691 177.608 244 175.048 244H158.856V198.144H173.48Z" fill="white"/>
</svg>
