<svg width="400" height="400" viewBox="0 0 400 400" fill="none" xmlns="http://www.w3.org/2000/svg">
<circle cx="200" cy="200" r="200" fill="black"/>
<path d="M291.631 134.06L236.94 79.3679C231.582 74.01 224.314 71 216.737 71H142.857C131.491 71 120.59 75.5153 112.553 83.5526C104.515 91.5898 100 102.491 100 113.857V285.286C100 296.652 104.515 307.553 112.553 315.59C120.59 323.628 131.491 328.143 142.857 328.143H257.143C268.509 328.143 279.41 323.628 287.447 315.59C295.485 307.553 300 296.652 300 285.286V154.263C300 150.511 299.261 146.796 297.825 143.329C296.389 139.862 294.285 136.713 291.631 134.06V134.06ZM228.571 91.2017L279.796 142.429H242.857C239.07 142.424 235.439 140.918 232.76 138.24C230.082 135.561 228.576 131.93 228.571 128.143V91.2017ZM285.714 285.286C285.706 292.861 282.693 300.123 277.336 305.479C271.98 310.835 264.718 313.848 257.143 313.857H142.857C135.282 313.848 128.02 310.835 122.664 305.479C117.307 300.123 114.294 292.861 114.286 285.286V113.857C114.294 106.282 117.307 99.0199 122.664 93.6635C128.02 88.3072 135.282 85.2943 142.857 85.2857H214.286V128.143C214.286 135.72 217.296 142.988 222.654 148.346C228.012 153.704 235.28 156.714 242.857 156.714H285.714V285.286ZM250 199.571H150C148.106 199.571 146.289 198.819 144.949 197.479C143.61 196.14 142.857 194.323 142.857 192.429C142.857 190.534 143.61 188.717 144.949 187.378C146.289 186.038 148.106 185.286 150 185.286H250C251.894 185.286 253.711 186.038 255.051 187.378C256.39 188.717 257.143 190.534 257.143 192.429C257.143 194.323 256.39 196.14 255.051 197.479C253.711 198.819 251.894 199.571 250 199.571ZM250 242.429H150C148.106 242.429 146.289 241.676 144.949 240.336C143.61 238.997 142.857 237.18 142.857 235.286C142.857 233.391 143.61 231.574 144.949 230.235C146.289 228.895 148.106 228.143 150 228.143H250C251.894 228.143 253.711 228.895 255.051 230.235C256.39 231.574 257.143 233.391 257.143 235.286C257.143 237.18 256.39 238.997 255.051 240.336C253.711 241.676 251.894 242.429 250 242.429ZM250 285.286H150C148.106 285.286 146.289 284.533 144.949 283.194C143.61 281.854 142.857 280.037 142.857 278.143C142.857 276.248 143.61 274.432 144.949 273.092C146.289 271.753 148.106 271 150 271H250C251.894 271 253.711 271.753 255.051 273.092C256.39 274.432 257.143 276.248 257.143 278.143C257.143 280.037 256.39 281.854 255.051 283.194C253.711 284.533 251.894 285.286 250 285.286Z" fill="white"/>
</svg>
