<svg width="70" height="52" viewBox="0 0 70 52" fill="none" xmlns="http://www.w3.org/2000/svg">
<path d="M61.989 3.94482C64.482 3.94482 66.501 5.96583 66.501 8.45683V43.5448C66.501 46.0348 64.482 48.0548 61.989 48.0548H8.01002C5.51902 48.0548 3.49902 46.0348 3.49902 43.5448V8.45683C3.49902 5.96583 5.51902 3.94482 8.01002 3.94482H61.989ZM61.989 0.944824H8.01002C3.86802 0.944824 0.499023 4.31483 0.499023 8.45683V43.5448C0.499023 47.6858 3.86802 51.0548 8.01002 51.0548H61.989C66.131 51.0548 69.501 47.6858 69.501 43.5448V8.45683C69.501 4.31483 66.131 0.944824 61.989 0.944824Z" fill="white"/>
<path d="M34.999 33.7948C34.644 33.7948 34.288 33.6688 34.004 33.4168L7.50398 9.91682C6.88398 9.36782 6.82698 8.41882 7.37698 7.79982C7.92698 7.18082 8.87498 7.12382 9.49398 7.67282L34.999 30.2898L60.506 7.67182C61.126 7.12082 62.076 7.17882 62.623 7.79882C63.173 8.41882 63.116 9.36682 62.496 9.91582L35.994 33.4158C35.71 33.6688 35.354 33.7948 34.999 33.7948Z" fill="white"/>
</svg>
