<svg width="75" height="76" viewBox="0 0 75 76" fill="none" xmlns="http://www.w3.org/2000/svg">
<path d="M72.9838 35.5698L37.7069 0.292974C37.614 0.200094 37.5038 0.126414 37.3825 0.0761442C37.2612 0.0258747 37.1312 0 36.9998 0C36.8685 0 36.7385 0.0258747 36.6172 0.0761442C36.4959 0.126414 36.3856 0.200094 36.2928 0.292974L21.9999 14.5859V9.99997C21.9999 9.73476 21.8945 9.4804 21.707 9.29287C21.5194 9.10533 21.2651 8.99997 20.9999 8.99997H12.9999C12.7347 8.99997 12.4803 9.10533 12.2928 9.29287C12.1052 9.4804 11.9999 9.73476 11.9999 9.99997V24.5859L1.01599 35.5698C0.365297 36.222 -9.18461e-05 37.1057 1.73175e-08 38.0269C9.18807e-05 38.9482 0.365656 39.8318 1.01648 40.4839C1.67848 41.1155 2.5583 41.4679 3.47327 41.4679C4.38824 41.4679 5.26806 41.1155 5.93006 40.4839L8.99988 37.414V75C8.99988 75.2652 9.10523 75.5195 9.29277 75.7071C9.48031 75.8946 9.73466 76 9.99988 76H63.9999C64.2651 76 64.5194 75.8946 64.707 75.7071C64.8945 75.5195 64.9999 75.2652 64.9999 75V37.414L68.0697 40.4839C68.7213 41.1355 69.6052 41.5016 70.5267 41.5016C71.4483 41.5016 72.3321 41.1355 72.9838 40.4839C73.6354 39.8322 74.0015 38.9484 74.0015 38.0268C74.0015 37.1053 73.6354 36.2214 72.9838 35.5698V35.5698ZM71.5692 39.0698C71.2883 39.3379 70.9148 39.4875 70.5265 39.4875C70.1381 39.4875 69.7647 39.3379 69.4838 39.0698L64.7069 34.293C64.567 34.1531 64.3889 34.0579 64.1949 34.0193C64.0009 33.9807 63.7999 34.0005 63.6172 34.0762C63.4344 34.1518 63.2783 34.28 63.1684 34.4444C63.0585 34.6089 62.9999 34.8022 62.9999 35V74H10.9999V35C10.9999 34.8022 10.9412 34.6089 10.8314 34.4444C10.7215 34.28 10.5653 34.1518 10.3826 34.0762C10.1999 34.0005 9.99882 33.9807 9.80485 34.0193C9.61088 34.0579 9.43271 34.1531 9.29288 34.293L4.51602 39.0698C4.23886 39.3438 3.86454 39.4969 3.47482 39.4958C3.08511 39.4947 2.71168 39.3394 2.43611 39.0638C2.16054 38.7882 2.00523 38.4148 2.0041 38.0251C2.00297 37.6354 2.15612 37.2611 2.43009 36.9839L13.7069 25.707C13.8944 25.5195 13.9998 25.2652 13.9999 25V11H19.9999V17C19.9999 17.1977 20.0585 17.3911 20.1684 17.5555C20.2783 17.7199 20.4345 17.8481 20.6172 17.9238C20.7999 17.9995 21.0009 18.0193 21.1949 17.9807C21.3889 17.9421 21.567 17.8468 21.7069 17.707L36.9999 2.41403L71.5697 36.9839C71.8458 37.2608 72.0008 37.6359 72.0007 38.0269C72.0006 38.418 71.8454 38.793 71.5692 39.0698V39.0698ZM17.9999 64C17.4065 64 16.8265 64.1759 16.3332 64.5056C15.8398 64.8352 15.4553 65.3038 15.2282 65.8519C15.0012 66.4001 14.9418 67.0033 15.0575 67.5853C15.1733 68.1672 15.459 68.7017 15.8786 69.1213C16.2981 69.5409 16.8327 69.8266 17.4146 69.9423C17.9965 70.0581 18.5997 69.9987 19.1479 69.7716C19.6961 69.5446 20.1646 69.16 20.4943 68.6667C20.8239 68.1733 20.9999 67.5933 20.9999 67C20.999 66.2046 20.6827 65.442 20.1202 64.8796C19.5578 64.3172 18.7953 64.0008 17.9999 64V64ZM17.9999 68C17.8021 68 17.6088 67.9413 17.4443 67.8314C17.2799 67.7216 17.1517 67.5654 17.076 67.3827C17.0003 67.1999 16.9805 66.9989 17.0191 66.8049C17.0577 66.6109 17.1529 66.4327 17.2928 66.2929C17.4326 66.153 17.6108 66.0578 17.8048 66.0192C17.9988 65.9806 18.1998 66.0004 18.3826 66.0761C18.5653 66.1518 18.7215 66.28 18.8313 66.4444C18.9412 66.6089 18.9999 66.8022 18.9999 67C18.9995 67.2651 18.8941 67.5192 18.7066 67.7067C18.5191 67.8942 18.265 67.9996 17.9999 68V68ZM27.9999 68C27.9999 68.2652 27.8945 68.5195 27.707 68.7071C27.5194 68.8946 27.2651 69 26.9999 69C26.7347 69 26.4803 68.8946 26.2928 68.7071C26.1052 68.5195 25.9999 68.2652 25.9999 68C25.9971 65.6139 25.048 63.3263 23.3608 61.6391C21.6736 59.9518 19.386 59.0027 16.9999 59C16.7347 59 16.4803 58.8946 16.2928 58.7071C16.1052 58.5195 15.9999 58.2652 15.9999 58C15.9999 57.7348 16.1052 57.4804 16.2928 57.2929C16.4803 57.1053 16.7347 57 16.9999 57C19.9162 57.0033 22.7122 58.1633 24.7744 60.2254C26.8366 62.2876 27.9966 65.0836 27.9999 68V68ZM35.9999 68C35.9999 68.2652 35.8945 68.5195 35.707 68.7071C35.5194 68.8946 35.2651 69 34.9999 69C34.7347 69 34.4803 68.8946 34.2928 68.7071C34.1052 68.5195 33.9999 68.2652 33.9999 68C33.9948 63.4928 32.2022 59.1717 29.0151 55.9847C25.8281 52.7977 21.507 51.005 16.9999 51C16.7347 51 16.4803 50.8946 16.2928 50.7071C16.1052 50.5195 15.9999 50.2652 15.9999 50C15.9999 49.7348 16.1052 49.4804 16.2928 49.2929C16.4803 49.1053 16.7347 49 16.9999 49C22.0372 49.0057 26.8666 51.0093 30.4286 54.5713C33.9905 58.1332 35.9942 62.9626 35.9999 68V68ZM43.9999 68C43.9999 68.2652 43.8945 68.5195 43.707 68.7071C43.5194 68.8946 43.2651 69 42.9999 69C42.7347 69 42.4803 68.8946 42.2928 68.7071C42.1052 68.5195 41.9999 68.2652 41.9999 68C41.9924 61.3719 39.3561 55.0173 34.6693 50.3305C29.9825 45.6437 23.628 43.0074 16.9999 43C16.7347 43 16.4803 42.8946 16.2928 42.7071C16.1052 42.5195 15.9999 42.2652 15.9999 42C15.9999 41.7348 16.1052 41.4804 16.2928 41.2929C16.4803 41.1053 16.7347 41 16.9999 41C24.1582 41.0081 31.021 43.8554 36.0828 48.9171C41.1445 53.9788 43.9917 60.8416 43.9999 68V68Z" fill="url(#paint0_linear)"/>
<defs>
<linearGradient id="paint0_linear" x1="74" y1="-6.17054e-06" x2="-2.07425e-06" y2="76" gradientUnits="userSpaceOnUse">
<stop stop-color="#74CDFF"/>
<stop offset="1" stop-color="#199DFF"/>
</linearGradient>
</defs>
</svg>
