<svg width="348" height="72" viewBox="0 0 348 72" fill="none" xmlns="http://www.w3.org/2000/svg">
<path d="M122.78 45.08C122.993 45.08 123.18 45.1667 123.34 45.34L124.88 47C123.707 48.36 122.28 49.42 120.6 50.18C118.933 50.94 116.913 51.32 114.54 51.32C112.487 51.32 110.62 50.9667 108.94 50.26C107.26 49.54 105.827 48.54 104.64 47.26C103.453 45.9667 102.533 44.42 101.88 42.62C101.227 40.82 100.9 38.84 100.9 36.68C100.9 34.52 101.24 32.54 101.92 30.74C102.6 28.94 103.553 27.3933 104.78 26.1C106.02 24.8067 107.5 23.8067 109.22 23.1C110.94 22.38 112.84 22.02 114.92 22.02C116.96 22.02 118.76 22.3467 120.32 23C121.88 23.6533 123.253 24.54 124.44 25.66L123.16 27.44C123.08 27.5733 122.973 27.6867 122.84 27.78C122.72 27.86 122.553 27.9 122.34 27.9C122.1 27.9 121.807 27.7733 121.46 27.52C121.113 27.2533 120.66 26.96 120.1 26.64C119.54 26.32 118.84 26.0333 118 25.78C117.16 25.5133 116.127 25.38 114.9 25.38C113.42 25.38 112.067 25.64 110.84 26.16C109.613 26.6667 108.553 27.4067 107.66 28.38C106.78 29.3533 106.093 30.54 105.6 31.94C105.107 33.34 104.86 34.92 104.86 36.68C104.86 38.4667 105.113 40.06 105.62 41.46C106.14 42.86 106.84 44.0467 107.72 45.02C108.613 45.98 109.66 46.7133 110.86 47.22C112.073 47.7267 113.38 47.98 114.78 47.98C115.633 47.98 116.4 47.9333 117.08 47.84C117.773 47.7333 118.407 47.5733 118.98 47.36C119.567 47.1467 120.107 46.88 120.6 46.56C121.107 46.2267 121.607 45.8333 122.1 45.38C122.327 45.18 122.553 45.08 122.78 45.08ZM136.688 30.42C138.168 30.42 139.501 30.6667 140.688 31.16C141.875 31.6533 142.888 32.3533 143.728 33.26C144.568 34.1667 145.208 35.2667 145.648 36.56C146.101 37.84 146.328 39.2733 146.328 40.86C146.328 42.46 146.101 43.9 145.648 45.18C145.208 46.46 144.568 47.5533 143.728 48.46C142.888 49.3667 141.875 50.0667 140.688 50.56C139.501 51.04 138.168 51.28 136.688 51.28C135.195 51.28 133.848 51.04 132.648 50.56C131.461 50.0667 130.448 49.3667 129.608 48.46C128.768 47.5533 128.121 46.46 127.668 45.18C127.228 43.9 127.008 42.46 127.008 40.86C127.008 39.2733 127.228 37.84 127.668 36.56C128.121 35.2667 128.768 34.1667 129.608 33.26C130.448 32.3533 131.461 31.6533 132.648 31.16C133.848 30.6667 135.195 30.42 136.688 30.42ZM136.688 48.5C138.688 48.5 140.181 47.8333 141.168 46.5C142.155 45.1533 142.648 43.28 142.648 40.88C142.648 38.4667 142.155 36.5867 141.168 35.24C140.181 33.8933 138.688 33.22 136.688 33.22C135.675 33.22 134.788 33.3933 134.028 33.74C133.281 34.0867 132.655 34.5867 132.148 35.24C131.655 35.8933 131.281 36.7 131.028 37.66C130.788 38.6067 130.668 39.68 130.668 40.88C130.668 43.28 131.161 45.1533 132.148 46.5C133.148 47.8333 134.661 48.5 136.688 48.5ZM154.203 33.68C154.643 33.1867 155.11 32.74 155.603 32.34C156.097 31.94 156.617 31.6 157.163 31.32C157.723 31.0267 158.31 30.8067 158.923 30.66C159.55 30.5 160.223 30.42 160.943 30.42C162.05 30.42 163.023 30.6067 163.863 30.98C164.717 31.34 165.423 31.86 165.983 32.54C166.557 33.2067 166.99 34.0133 167.283 34.96C167.577 35.9067 167.723 36.9533 167.723 38.1V51H164.143V38.1C164.143 36.5667 163.79 35.38 163.083 34.54C162.39 33.6867 161.33 33.26 159.903 33.26C158.85 33.26 157.863 33.5133 156.943 34.02C156.037 34.5267 155.197 35.2133 154.423 36.08V51H150.843V30.74H152.983C153.49 30.74 153.803 30.9867 153.923 31.48L154.203 33.68ZM186.348 35.56C185.681 34.6667 184.961 34.0467 184.188 33.7C183.415 33.34 182.548 33.16 181.588 33.16C179.708 33.16 178.261 33.8333 177.248 35.18C176.235 36.5267 175.728 38.4467 175.728 40.94C175.728 42.26 175.841 43.3933 176.068 44.34C176.295 45.2733 176.628 46.0467 177.068 46.66C177.508 47.26 178.048 47.7 178.688 47.98C179.328 48.26 180.055 48.4 180.868 48.4C182.041 48.4 183.061 48.1333 183.928 47.6C184.808 47.0667 185.615 46.3133 186.348 45.34V35.56ZM189.908 21.54V51H187.788C187.281 51 186.961 50.7533 186.828 50.26L186.508 47.8C185.641 48.84 184.655 49.68 183.548 50.32C182.441 50.96 181.161 51.28 179.708 51.28C178.548 51.28 177.495 51.06 176.548 50.62C175.601 50.1667 174.795 49.5067 174.128 48.64C173.461 47.7733 172.948 46.6933 172.588 45.4C172.228 44.1067 172.048 42.62 172.048 40.94C172.048 39.4467 172.248 38.06 172.648 36.78C173.048 35.4867 173.621 34.3667 174.368 33.42C175.115 32.4733 176.028 31.7333 177.108 31.2C178.201 30.6533 179.428 30.38 180.788 30.38C182.028 30.38 183.088 30.5933 183.968 31.02C184.861 31.4333 185.655 32.0133 186.348 32.76V21.54H189.908ZM209.091 38.66C209.091 37.8333 208.971 37.08 208.731 36.4C208.504 35.7067 208.164 35.1133 207.711 34.62C207.271 34.1133 206.731 33.7267 206.091 33.46C205.451 33.18 204.724 33.04 203.911 33.04C202.204 33.04 200.851 33.54 199.851 34.54C198.864 35.5267 198.251 36.9 198.011 38.66H209.091ZM211.971 48.16C211.531 48.6933 211.004 49.16 210.391 49.56C209.778 49.9467 209.118 50.2667 208.411 50.52C207.718 50.7733 206.998 50.96 206.251 51.08C205.504 51.2133 204.764 51.28 204.031 51.28C202.631 51.28 201.338 51.0467 200.151 50.58C198.978 50.1 197.958 49.4067 197.091 48.5C196.238 47.58 195.571 46.4467 195.091 45.1C194.611 43.7533 194.371 42.2067 194.371 40.46C194.371 39.0467 194.584 37.7267 195.011 36.5C195.451 35.2733 196.078 34.2133 196.891 33.32C197.704 32.4133 198.698 31.7067 199.871 31.2C201.044 30.68 202.364 30.42 203.831 30.42C205.044 30.42 206.164 30.6267 207.191 31.04C208.231 31.44 209.124 32.0267 209.871 32.8C210.631 33.56 211.224 34.5067 211.651 35.64C212.078 36.76 212.291 38.04 212.291 39.48C212.291 40.04 212.231 40.4133 212.111 40.6C211.991 40.7867 211.764 40.88 211.431 40.88H197.891C197.931 42.16 198.104 43.2733 198.411 44.22C198.731 45.1667 199.171 45.96 199.731 46.6C200.291 47.2267 200.958 47.7 201.731 48.02C202.504 48.3267 203.371 48.48 204.331 48.48C205.224 48.48 205.991 48.38 206.631 48.18C207.284 47.9667 207.844 47.74 208.311 47.5C208.778 47.26 209.164 47.04 209.471 46.84C209.791 46.6267 210.064 46.52 210.291 46.52C210.584 46.52 210.811 46.6333 210.971 46.86L211.971 48.16ZM220.024 33.68C220.464 33.1867 220.93 32.74 221.424 32.34C221.917 31.94 222.437 31.6 222.984 31.32C223.544 31.0267 224.13 30.8067 224.744 30.66C225.37 30.5 226.044 30.42 226.764 30.42C227.87 30.42 228.844 30.6067 229.684 30.98C230.537 31.34 231.244 31.86 231.804 32.54C232.377 33.2067 232.81 34.0133 233.104 34.96C233.397 35.9067 233.544 36.9533 233.544 38.1V51H229.964V38.1C229.964 36.5667 229.61 35.38 228.904 34.54C228.21 33.6867 227.15 33.26 225.724 33.26C224.67 33.26 223.684 33.5133 222.764 34.02C221.857 34.5267 221.017 35.2133 220.244 36.08V51H216.664V30.74H218.804C219.31 30.74 219.624 30.9867 219.744 31.48L220.024 33.68ZM250.768 34.08C250.608 34.3733 250.362 34.52 250.028 34.52C249.828 34.52 249.602 34.4467 249.348 34.3C249.095 34.1533 248.782 33.9933 248.408 33.82C248.048 33.6333 247.615 33.4667 247.108 33.32C246.602 33.16 246.002 33.08 245.308 33.08C244.708 33.08 244.168 33.16 243.688 33.32C243.208 33.4667 242.795 33.6733 242.448 33.94C242.115 34.2067 241.855 34.52 241.668 34.88C241.495 35.2267 241.408 35.6067 241.408 36.02C241.408 36.54 241.555 36.9733 241.848 37.32C242.155 37.6667 242.555 37.9667 243.048 38.22C243.542 38.4733 244.102 38.7 244.728 38.9C245.355 39.0867 245.995 39.2933 246.648 39.52C247.315 39.7333 247.962 39.9733 248.588 40.24C249.215 40.5067 249.775 40.84 250.268 41.24C250.762 41.64 251.155 42.1333 251.448 42.72C251.755 43.2933 251.908 43.9867 251.908 44.8C251.908 45.7333 251.742 46.6 251.408 47.4C251.075 48.1867 250.582 48.8733 249.928 49.46C249.275 50.0333 248.475 50.4867 247.528 50.82C246.582 51.1533 245.488 51.32 244.248 51.32C242.835 51.32 241.555 51.0933 240.408 50.64C239.262 50.1733 238.288 49.58 237.488 48.86L238.328 47.5C238.435 47.3267 238.562 47.1933 238.708 47.1C238.855 47.0067 239.042 46.96 239.268 46.96C239.508 46.96 239.762 47.0533 240.028 47.24C240.295 47.4267 240.615 47.6333 240.988 47.86C241.375 48.0867 241.842 48.2933 242.388 48.48C242.935 48.6667 243.615 48.76 244.428 48.76C245.122 48.76 245.728 48.6733 246.248 48.5C246.768 48.3133 247.202 48.0667 247.548 47.76C247.895 47.4533 248.148 47.1 248.308 46.7C248.482 46.3 248.568 45.8733 248.568 45.42C248.568 44.86 248.415 44.4 248.108 44.04C247.815 43.6667 247.422 43.3533 246.928 43.1C246.435 42.8333 245.868 42.6067 245.228 42.42C244.602 42.22 243.955 42.0133 243.288 41.8C242.635 41.5867 241.988 41.3467 241.348 41.08C240.722 40.8 240.162 40.4533 239.668 40.04C239.175 39.6267 238.775 39.12 238.468 38.52C238.175 37.9067 238.028 37.1667 238.028 36.3C238.028 35.5267 238.188 34.7867 238.508 34.08C238.828 33.36 239.295 32.7333 239.908 32.2C240.522 31.6533 241.275 31.22 242.168 30.9C243.062 30.58 244.082 30.42 245.228 30.42C246.562 30.42 247.755 30.6333 248.808 31.06C249.875 31.4733 250.795 32.0467 251.568 32.78L250.768 34.08ZM267.253 41.88C265.613 41.9333 264.213 42.0667 263.053 42.28C261.906 42.48 260.966 42.7467 260.233 43.08C259.513 43.4133 258.986 43.8067 258.653 44.26C258.333 44.7133 258.173 45.22 258.173 45.78C258.173 46.3133 258.26 46.7733 258.433 47.16C258.606 47.5467 258.84 47.8667 259.133 48.12C259.44 48.36 259.793 48.54 260.193 48.66C260.606 48.7667 261.046 48.82 261.513 48.82C262.14 48.82 262.713 48.76 263.233 48.64C263.753 48.5067 264.24 48.32 264.693 48.08C265.16 47.84 265.6 47.5533 266.013 47.22C266.44 46.8867 266.853 46.5067 267.253 46.08V41.88ZM255.753 33.6C256.873 32.52 258.08 31.7133 259.373 31.18C260.666 30.6467 262.1 30.38 263.673 30.38C264.806 30.38 265.813 30.5667 266.693 30.94C267.573 31.3133 268.313 31.8333 268.913 32.5C269.513 33.1667 269.966 33.9733 270.273 34.92C270.58 35.8667 270.733 36.9067 270.733 38.04V51H269.153C268.806 51 268.54 50.9467 268.353 50.84C268.166 50.72 268.02 50.4933 267.913 50.16L267.513 48.24C266.98 48.7333 266.46 49.1733 265.953 49.56C265.446 49.9333 264.913 50.2533 264.353 50.52C263.793 50.7733 263.193 50.9667 262.553 51.1C261.926 51.2467 261.226 51.32 260.453 51.32C259.666 51.32 258.926 51.2133 258.233 51C257.54 50.7733 256.933 50.44 256.413 50C255.906 49.56 255.5 49.0067 255.193 48.34C254.9 47.66 254.753 46.86 254.753 45.94C254.753 45.14 254.973 44.3733 255.413 43.64C255.853 42.8933 256.566 42.2333 257.553 41.66C258.54 41.0867 259.826 40.62 261.413 40.26C263 39.8867 264.946 39.6733 267.253 39.62V38.04C267.253 36.4667 266.913 35.28 266.233 34.48C265.553 33.6667 264.56 33.26 263.253 33.26C262.373 33.26 261.633 33.3733 261.033 33.6C260.446 33.8133 259.933 34.06 259.493 34.34C259.066 34.6067 258.693 34.8533 258.373 35.08C258.066 35.2933 257.76 35.4 257.453 35.4C257.213 35.4 257.006 35.34 256.833 35.22C256.66 35.0867 256.513 34.9267 256.393 34.74L255.753 33.6ZM294.683 51H291.123V33.72H280.683V45.88C280.683 46.7333 280.889 47.3667 281.303 47.78C281.716 48.1933 282.249 48.4 282.903 48.4C283.276 48.4 283.596 48.3533 283.863 48.26C284.143 48.1533 284.383 48.04 284.583 47.92C284.783 47.8 284.949 47.6933 285.083 47.6C285.229 47.4933 285.356 47.44 285.463 47.44C285.649 47.44 285.816 47.5533 285.963 47.78L287.003 49.48C286.389 50.0533 285.649 50.5067 284.783 50.84C283.916 51.16 283.023 51.32 282.103 51.32C280.503 51.32 279.269 50.8733 278.403 49.98C277.549 49.0867 277.123 47.8 277.123 46.12V33.72H274.683C274.469 33.72 274.289 33.66 274.143 33.54C273.996 33.4067 273.923 33.2067 273.923 32.94V31.52L277.243 31.08L278.062 24.84C278.103 24.64 278.189 24.48 278.323 24.36C278.469 24.2267 278.656 24.16 278.883 24.16H280.683V31.14H294.683V51ZM295.562 24.24C295.562 24.5867 295.489 24.9133 295.343 25.22C295.209 25.5133 295.023 25.7733 294.783 26C294.556 26.2267 294.289 26.4067 293.983 26.54C293.676 26.6733 293.349 26.74 293.003 26.74C292.656 26.74 292.329 26.6733 292.023 26.54C291.729 26.4067 291.469 26.2267 291.243 26C291.016 25.7733 290.836 25.5133 290.703 25.22C290.569 24.9133 290.503 24.5867 290.503 24.24C290.503 23.8933 290.569 23.5667 290.703 23.26C290.836 22.94 291.016 22.6667 291.243 22.44C291.469 22.2 291.729 22.0133 292.023 21.88C292.329 21.7467 292.656 21.68 293.003 21.68C293.349 21.68 293.676 21.7467 293.983 21.88C294.289 22.0133 294.556 22.2 294.783 22.44C295.023 22.6667 295.209 22.94 295.343 23.26C295.489 23.5667 295.562 23.8933 295.562 24.24ZM309.071 30.42C310.551 30.42 311.884 30.6667 313.071 31.16C314.258 31.6533 315.271 32.3533 316.111 33.26C316.951 34.1667 317.591 35.2667 318.031 36.56C318.484 37.84 318.711 39.2733 318.711 40.86C318.711 42.46 318.484 43.9 318.031 45.18C317.591 46.46 316.951 47.5533 316.111 48.46C315.271 49.3667 314.258 50.0667 313.071 50.56C311.884 51.04 310.551 51.28 309.071 51.28C307.578 51.28 306.231 51.04 305.031 50.56C303.844 50.0667 302.831 49.3667 301.991 48.46C301.151 47.5533 300.504 46.46 300.051 45.18C299.611 43.9 299.391 42.46 299.391 40.86C299.391 39.2733 299.611 37.84 300.051 36.56C300.504 35.2667 301.151 34.1667 301.991 33.26C302.831 32.3533 303.844 31.6533 305.031 31.16C306.231 30.6667 307.578 30.42 309.071 30.42ZM309.071 48.5C311.071 48.5 312.564 47.8333 313.551 46.5C314.538 45.1533 315.031 43.28 315.031 40.88C315.031 38.4667 314.538 36.5867 313.551 35.24C312.564 33.8933 311.071 33.22 309.071 33.22C308.058 33.22 307.171 33.3933 306.411 33.74C305.664 34.0867 305.038 34.5867 304.531 35.24C304.038 35.8933 303.664 36.7 303.411 37.66C303.171 38.6067 303.051 39.68 303.051 40.88C303.051 43.28 303.544 45.1533 304.531 46.5C305.531 47.8333 307.044 48.5 309.071 48.5ZM326.586 33.68C327.026 33.1867 327.493 32.74 327.986 32.34C328.48 31.94 329 31.6 329.546 31.32C330.106 31.0267 330.693 30.8067 331.306 30.66C331.933 30.5 332.606 30.42 333.326 30.42C334.433 30.42 335.406 30.6067 336.246 30.98C337.1 31.34 337.806 31.86 338.366 32.54C338.94 33.2067 339.373 34.0133 339.666 34.96C339.96 35.9067 340.106 36.9533 340.106 38.1V51H336.526V38.1C336.526 36.5667 336.173 35.38 335.466 34.54C334.773 33.6867 333.713 33.26 332.286 33.26C331.233 33.26 330.246 33.5133 329.326 34.02C328.42 34.5267 327.58 35.2133 326.806 36.08V51H323.226V30.74H325.366C325.873 30.74 326.186 30.9867 326.306 31.48L326.586 33.68Z" fill="black"/>
<circle cx="58" cy="25" r="3" fill="#0083E4"/>
<circle cx="69" cy="25" r="3" fill="#70C1FF"/>
<circle cx="58" cy="36" r="3" fill="#0083E4"/>
<circle cx="69" cy="36" r="3" fill="#70C1FF"/>
<circle cx="58" cy="47" r="3" fill="#0083E4"/>
<circle cx="69" cy="47" r="3" fill="#70C1FF"/>
<circle cx="58" cy="14" r="3" fill="#0083E4"/>
<circle cx="69" cy="14" r="3" fill="#70C1FF"/>
<circle cx="58" cy="3" r="3" fill="#70C1FF"/>
<circle cx="69" cy="3" r="3" fill="#70C1FF"/>
<circle cx="58" cy="58" r="3" fill="#0083E4"/>
<circle cx="69" cy="58" r="3" fill="#70C1FF"/>
<circle cx="58" cy="69" r="3" fill="#70C1FF"/>
<circle cx="69" cy="69" r="3" fill="#70C1FF"/>
<circle cx="3" cy="25" r="3" fill="#70C1FF"/>
<circle cx="14" cy="25" r="3" fill="#0083E4"/>
<circle cx="3" cy="36" r="3" fill="#70C1FF"/>
<circle cx="14" cy="36" r="3" fill="#0083E4"/>
<circle cx="3" cy="47" r="3" fill="#70C1FF"/>
<circle cx="14" cy="47" r="3" fill="#0083E4"/>
<circle cx="3" cy="14" r="3" fill="#70C1FF"/>
<circle cx="14" cy="14" r="3" fill="#0083E4"/>
<circle cx="3" cy="3" r="3" fill="#70C1FF"/>
<circle cx="14" cy="3" r="3" fill="#70C1FF"/>
<circle cx="3" cy="58" r="3" fill="#70C1FF"/>
<circle cx="14" cy="58" r="3" fill="#0083E4"/>
<circle cx="3" cy="69" r="3" fill="#70C1FF"/>
<circle cx="14" cy="69" r="3" fill="#70C1FF"/>
<circle cx="25" cy="58" r="3" fill="#0083E4"/>
<circle cx="25" cy="69" r="3" fill="#70C1FF"/>
<circle cx="36" cy="58" r="3" fill="#0083E4"/>
<circle cx="36" cy="69" r="3" fill="#70C1FF"/>
<circle cx="47" cy="58" r="3" fill="#0083E4"/>
<circle cx="47" cy="69" r="3" fill="#70C1FF"/>
<circle cx="25" cy="3" r="3" fill="#70C1FF"/>
<circle cx="25" cy="14" r="3" fill="#0083E4"/>
<circle cx="36" cy="3" r="3" fill="#70C1FF"/>
<circle cx="36" cy="14" r="3" fill="#0083E4"/>
<circle cx="47" cy="3" r="3" fill="#70C1FF"/>
<circle cx="47" cy="14" r="3" fill="#0083E4"/>
<circle cx="36" cy="36" r="14" fill="#0083E4"/>
</svg>
