<svg width="60" height="110" viewBox="0 0 60 110" fill="none" xmlns="http://www.w3.org/2000/svg">
<path d="M48.2485 0H11.7514C8.63757 0.00911517 5.65383 1.25014 3.45198 3.452C1.25013 5.65386 0.00910804 8.6376 0 11.7515V98.0555C0.00910746 101.169 1.25012 104.153 3.45198 106.355C5.65383 108.557 8.63757 109.798 11.7514 109.807H48.2485C51.3624 109.798 54.3462 108.557 56.548 106.355C58.7499 104.153 59.9909 101.169 60 98.0555V11.7515C59.9909 8.63759 58.7499 5.65385 56.548 3.452C54.3462 1.25014 51.3624 0.00911456 48.2485 0ZM56.4145 98.0555C56.412 100.22 55.5509 102.296 54.02 103.827C52.4891 105.358 50.4135 106.219 48.2485 106.221H11.7514C9.58646 106.219 7.51085 105.358 5.97997 103.827C4.44909 102.296 3.58798 100.22 3.58553 98.0555V11.7515C3.58797 9.58649 4.44909 7.51087 5.97997 5.97999C7.51085 4.44911 9.58646 3.58798 11.7514 3.58553H48.2485C50.4135 3.58798 52.4891 4.4491 54.02 5.97998C55.5509 7.51087 56.412 9.58648 56.4145 11.7515V98.0555Z" fill="white"/>
<path d="M30 7.93701C29.3934 7.937 28.8004 8.11686 28.2961 8.45385C27.7917 8.79084 27.3986 9.26982 27.1665 9.83023C26.9343 10.3906 26.8736 11.0073 26.9919 11.6022C27.1102 12.1971 27.4023 12.7436 27.8312 13.1726C28.2601 13.6015 28.8066 13.8936 29.4015 14.0119C29.9965 14.1303 30.6131 14.0696 31.1735 13.8374C31.7339 13.6053 32.2129 13.2122 32.5499 12.7079C32.887 12.2035 33.0668 11.6106 33.0668 11.004C33.0659 10.1909 32.7425 9.41131 32.1676 8.83634C31.5926 8.26137 30.8131 7.93794 30 7.93701ZM30 11.5225C29.8974 11.5225 29.7971 11.4921 29.7119 11.4351C29.6266 11.3781 29.5601 11.2971 29.5209 11.2024C29.4816 11.1076 29.4714 11.0033 29.4914 10.9027C29.5114 10.8021 29.5608 10.7097 29.6333 10.6372C29.7059 10.5647 29.7983 10.5153 29.8989 10.4953C29.9995 10.4753 30.1038 10.4856 30.1985 10.5248C30.2933 10.5641 30.3743 10.6306 30.4313 10.7159C30.4882 10.8011 30.5186 10.9014 30.5186 11.004C30.5185 11.1415 30.4638 11.2733 30.3665 11.3705C30.2693 11.4677 30.1375 11.5224 30 11.5225V11.5225Z" fill="white"/>
</svg>
