<svg width="89" height="76" viewBox="0 0 89 76" fill="none" xmlns="http://www.w3.org/2000/svg">
<path d="M36.973 0C23.6322 0 14.3164 11.8622 15.3733 23.75C6.78375 24.3387 0 31.7526 0 40.0541C0 50.1726 7.74253 57.5135 16.4324 57.5135H25.6757C25.8118 57.5154 25.9469 57.4903 26.0732 57.4395C26.1995 57.3888 26.3144 57.3135 26.4113 57.2179C26.5083 57.1223 26.5852 57.0085 26.6377 56.8829C26.6903 56.7573 26.7173 56.6226 26.7173 56.4865C26.7173 56.3504 26.6903 56.2156 26.6377 56.0901C26.5852 55.9645 26.5083 55.8506 26.4113 55.7551C26.3144 55.6595 26.1995 55.5842 26.0732 55.5334C25.9469 55.4827 25.8118 55.4575 25.6757 55.4595H16.4324C8.89601 55.4595 2.05405 49.1323 2.05405 40.0541C2.05405 32.5772 8.51517 25.6757 16.4324 25.6757C16.5819 25.6775 16.73 25.6467 16.8664 25.5853C17.0027 25.524 17.124 25.4336 17.2218 25.3205C17.3196 25.2074 17.3916 25.0744 17.4326 24.9306C17.4736 24.7868 17.4828 24.6358 17.4595 24.4882C15.916 13.4975 24.5014 2.05405 36.973 2.05405C42.2992 2.05405 46.7575 4.02327 50.0676 6.96453C50.1663 7.06677 50.2852 7.14741 50.4167 7.20133C50.5482 7.25526 50.6895 7.2813 50.8316 7.2778C50.9737 7.27431 51.1136 7.24136 51.2423 7.18104C51.371 7.12071 51.4858 7.03433 51.5794 6.92735C51.673 6.82038 51.7434 6.69514 51.7861 6.55956C51.8288 6.42398 51.8429 6.28101 51.8275 6.13971C51.8121 5.9984 51.7675 5.86182 51.6966 5.73862C51.6257 5.61543 51.53 5.50829 51.4155 5.42399C47.7589 2.17472 42.8084 0 36.973 0ZM61.1081 9.91723C59.0218 9.95351 56.9481 10.4246 55.0101 11.3936C54.8724 11.441 54.7462 11.5172 54.6402 11.6171C54.5341 11.717 54.4505 11.8383 54.3949 11.973C54.3393 12.1077 54.3131 12.2527 54.3178 12.3983C54.3226 12.5439 54.3582 12.6869 54.4225 12.8177C54.4867 12.9484 54.5781 13.0641 54.6904 13.1568C54.8028 13.2496 54.9336 13.3174 55.0742 13.3557C55.2147 13.3941 55.3619 13.4021 55.5058 13.3792C55.6497 13.3563 55.787 13.303 55.9088 13.223C59.6954 11.3297 64.2317 11.5732 67.7838 13.7044C71.3358 15.8356 73.9459 19.8273 73.9459 25.6757C73.9505 25.9169 74.0399 26.1488 74.1983 26.3307C74.3568 26.5126 74.5742 26.6329 74.8125 26.6706C81.541 27.7996 86.2703 34.4094 86.2703 41.0811C86.2703 49.0744 79.8324 55.4595 69.8378 55.4595H62.6486C62.5126 55.4575 62.3774 55.4827 62.2511 55.5334C62.1248 55.5842 62.0099 55.6595 61.913 55.7551C61.8161 55.8506 61.7391 55.9645 61.6866 56.0901C61.634 56.2156 61.607 56.3504 61.607 56.4865C61.607 56.6226 61.634 56.7573 61.6866 56.8829C61.7391 57.0085 61.8161 57.1223 61.913 57.2179C62.0099 57.3135 62.1248 57.3888 62.2511 57.4395C62.3774 57.4903 62.5126 57.5154 62.6486 57.5135H69.8378C80.7306 57.5135 88.3243 50.1974 88.3243 41.0811C88.3243 33.7066 83.3094 26.5444 75.9037 24.8733C75.6511 18.8314 72.7775 14.3192 68.8108 11.9392C66.7355 10.694 64.3906 10.0206 62.0068 9.91723C61.7088 9.9043 61.4061 9.91205 61.1081 9.91723ZM44.1622 41.0811C39.6281 41.0811 35.9459 44.7633 35.9459 49.2973V54.5287C33.4361 56.7853 31.8378 60.0417 31.8378 63.6757C31.8378 70.4701 37.3678 76 44.1622 76C50.9565 76 56.4865 70.4701 56.4865 63.6757C56.4865 60.0417 54.8882 56.7853 52.3784 54.5287V49.2973C52.3784 44.7633 48.6962 41.0811 44.1622 41.0811ZM44.1622 43.1351C47.5938 43.1351 50.3243 45.8657 50.3243 49.2973V53.0524C48.5076 51.9956 46.4116 51.3514 44.1622 51.3514C41.9127 51.3514 39.8167 51.9956 38 53.0524V49.2973C38 45.8657 40.7306 43.1351 44.1622 43.1351ZM44.1622 53.4054C49.8464 53.4054 54.4324 57.9914 54.4324 63.6757C54.4324 69.36 49.8464 73.9459 44.1622 73.9459C38.4779 73.9459 33.8919 69.36 33.8919 63.6757C33.8919 57.9914 38.4779 53.4054 44.1622 53.4054ZM44.1622 61.6216C43.0277 61.6216 42.1081 62.5413 42.1081 63.6757C42.1081 64.8101 43.0277 65.7297 44.1622 65.7297C45.2966 65.7297 46.2162 64.8101 46.2162 63.6757C46.2162 62.5413 45.2966 61.6216 44.1622 61.6216Z" fill="url(#paint0_linear)"/>
<defs>
<linearGradient id="paint0_linear" x1="44.1622" y1="0" x2="44.1622" y2="76" gradientUnits="userSpaceOnUse">
<stop stop-color="#74CDFF"/>
<stop offset="1" stop-color="#199DFF"/>
</linearGradient>
</defs>
</svg>
